<?xml version="1.0" encoding="UTF-8" standalone="no"?>
<!-- Generator: Adobe Illustrator 19.0.0, SVG Export Plug-In . SVG Version: 6.00 Build 0)  -->

<svg
   xmlns:dc="http://purl.org/dc/elements/1.1/"
   xmlns:cc="http://creativecommons.org/ns#"
   xmlns:rdf="http://www.w3.org/1999/02/22-rdf-syntax-ns#"
   xmlns:svg="http://www.w3.org/2000/svg"
   xmlns="http://www.w3.org/2000/svg"
   xmlns:sodipodi="http://sodipodi.sourceforge.net/DTD/sodipodi-0.dtd"
   xmlns:inkscape="http://www.inkscape.org/namespaces/inkscape"
   version="1.1"
   id="Layer_1"
   x="0px"
   y="0px"
   viewBox="0 0 512 512"
   style="enable-background:new 0 0 512 512;"
   xml:space="preserve"
   sodipodi:docname="block_user_block.svg"
   inkscape:version="0.92.4 (5da689c313, 2019-01-14)"><metadata
   id="metadata47"><rdf:RDF><cc:Work
       rdf:about=""><dc:format>image/svg+xml</dc:format><dc:type
         rdf:resource="http://purl.org/dc/dcmitype/StillImage" /></cc:Work></rdf:RDF></metadata><defs
   id="defs45" /><sodipodi:namedview
   pagecolor="#ffffff"
   bordercolor="#666666"
   borderopacity="1"
   objecttolerance="10"
   gridtolerance="10"
   guidetolerance="10"
   inkscape:pageopacity="0"
   inkscape:pageshadow="2"
   inkscape:window-width="1920"
   inkscape:window-height="1001"
   id="namedview43"
   showgrid="false"
   inkscape:zoom="1.3037281"
   inkscape:cx="256"
   inkscape:cy="256"
   inkscape:window-x="-9"
   inkscape:window-y="-9"
   inkscape:window-maximized="1"
   inkscape:current-layer="Layer_1" />
<path
   style="fill:#FFB655;"
   d="M411.151,201.697h-23.273h-46.545H256h-85.333h-46.545h-23.273c-12.853,0-23.273,10.42-23.273,23.273  v263.758c0,12.853,10.42,23.273,23.273,23.273H256h155.152c12.853,0,23.273-10.42,23.273-23.273V224.97  C434.424,212.117,424.004,201.697,411.151,201.697z"
   id="path2" />
<path
   style="fill:#C3C3C7;"
   d="M170.667,131.877c0-47.051,38.281-85.332,85.333-85.332s85.333,38.281,85.333,85.332v69.82h46.545  v-69.82C387.879,59.161,328.718,0,256,0S124.121,59.161,124.121,131.877v69.82h46.545V131.877z"
   id="path4" />

<path
   style="fill:#EE8700;"
   d="M100.848,512H256V389.761l-16.514,16.514c-4.544,4.544-10.501,6.817-16.455,6.817  c-5.955,0-11.913-2.271-16.455-6.817c-9.089-9.087-9.089-23.824,0-32.912l16.513-16.514l-16.513-16.514  c-9.089-9.087-9.089-23.823,0-32.912c9.087-9.089,23.824-9.089,32.912,0L256,323.936V201.697h-85.333h-46.545h-23.273  c-12.853,0-23.273,10.42-23.273,23.273v263.758C77.576,501.58,87.996,512,100.848,512z"
   id="path8" />
<path
   style="fill:#A9A8AE;"
   d="M124.121,131.879v69.818h46.545v-69.818c0-47.053,38.281-85.333,85.333-85.333V0  C183.282,0,124.121,59.161,124.121,131.879z"
   id="path10" />
<g
   id="g12">
</g>
<g
   id="g14">
</g>
<g
   id="g16">
</g>
<g
   id="g18">
</g>
<g
   id="g20">
</g>
<g
   id="g22">
</g>
<g
   id="g24">
</g>
<g
   id="g26">
</g>
<g
   id="g28">
</g>
<g
   id="g30">
</g>
<g
   id="g32">
</g>
<g
   id="g34">
</g>
<g
   id="g36">
</g>
<g
   id="g38">
</g>
<g
   id="g40">
</g>
<rect
   style="fill:#ee8700;fill-opacity:1"
   id="rect51"
   width="65.964676"
   height="153.40622"
   x="190.22371"
   y="277.28848" /></svg>