<?xml version="1.0" encoding="iso-8859-1"?>
<!-- Generator: Adobe Illustrator 19.0.0, SVG Export Plug-In . SVG Version: 6.00 Build 0)  -->
<svg version="1.1" id="Capa_1" xmlns="http://www.w3.org/2000/svg" xmlns:xlink="http://www.w3.org/1999/xlink" x="0px" y="0px"
	 viewBox="0 0 512 512" style="enable-background:new 0 0 512 512;" xml:space="preserve">
<g>
	<polygon style="fill:#EDF2FA;" points="94.179,190.993 94.179,317.875 77.247,347.175 56.18,332.175 56.18,190.993 	"/>
	<path style="fill:#EDF2FA;" d="M438.002,42.005c0-14.876,10.152-27.378,23.904-30.964l0.095-1.035H159.995
		c-17.673,0-31.999,14.327-31.999,31.999v403.99h310.006V271.599V42.005z"/>
	<path style="fill:#EDF2FA;" d="M374,461.932v8.061c0,17.674,14.328,32.001,32.001,32.001l0,0c17.674,0,32.001-14.328,32.001-32.001
		v-63L374,461.932z"/>
</g>
<path style="fill:#FFB954;" d="M438.002,42.005c0-17.673,14.327-31.999,31.999-31.999S502,24.332,502,42.005v89.998h-63.998V42.005z
	"/>
<path style="fill:#FFFFFF;" d="M322.461,501.993H10v-63.998c0-17.673,14.327-31.999,31.999-31.999h308.004v68.455
	C350.004,489.663,337.672,501.993,322.461,501.993z"/>
<path style="fill:#FFB954;" d="M374,501.993v-63.996c0-17.674-14.328-32.001-32.001-32.001l0,0
	c-17.674,0-32.001,14.328-32.001,32.001v63.996L374,501.993L374,501.993z"/>
<rect x="189.005" y="64.008" style="fill:#A0E557;" width="187.995" height="71.998"/>
<circle style="fill:#70DDD6;" cx="74.008" cy="127.997" r="63.998"/>
<circle style="fill:#EDF2FA;" cx="74.008" cy="101.587" r="18.824"/>
<path d="M470.001,0.006c-1.826,0-7.094,0-8,0H159.995c-5.522,0-10,4.477-10,10s4.478,10,10,10h274.248
	c-3.954,6.403-6.242,13.938-6.242,21.999v427.988c0,12.132-9.87,22-22.001,22s-22-9.87-22-22v-31.996c0-23.159-18.842-42-42.001-42
	H137.995V216.334c0-5.523-4.478-10-10-10s-10,4.477-10,10v179.662H41.999C18.841,395.997,0,414.837,0,437.996v63.998
	c0,5.523,4.478,10,10,10h396.001c23.159,0,42.001-18.842,42.001-42V142.002H502c5.522,0,10-4.477,10-10V42.005
	C512,18.848,493.159,0.006,470.001,0.006z M364.001,437.997v31.996c0,8.063,2.288,15.598,6.242,22h-50.245v-21.995v-22.002v-9.999
	c0-12.132,9.87-22,22.001-22C354.131,415.996,364.001,425.865,364.001,437.997z M19.999,491.993v-21h85.678c5.522,0,10-4.477,10-10
	c0-5.523-4.478-10-10-10H19.999v-12.999c0-12.131,9.869-21.999,21.999-21.999h264.242c-3.955,6.403-6.243,13.939-6.243,22v53.998
	H19.999z M492.001,122.003h-43.999V42.005c0-12.131,9.869-21.999,21.999-21.999s21.999,9.869,21.999,21.999V122.003z"/>
<path d="M386.996,64.004c0-5.523-4.478-10-10-10H189.001c-5.522,0-10,4.477-10,10v71.998c0,5.523,4.478,10,10,10h187.995
	c5.522,0,10-4.477,10-10V64.004z M366.997,126.003H199.001V74.004h167.996V126.003z"/>
<path d="M376.996,169.798h-187.46c-5.522,0-10,4.477-10,10s4.478,10,10,10h187.46c5.522,0,10-4.477,10-10
	S382.518,169.798,376.996,169.798z"/>
<path d="M384.062,264.929c-1.859-1.86-4.43-2.93-7.069-2.93c-2.631,0-5.211,1.07-7.07,2.93c-1.86,1.86-2.93,4.44-2.93,7.07
	c0,2.63,1.069,5.21,2.93,7.07c1.859,1.86,4.439,2.93,7.07,2.93c2.64,0,5.21-1.07,7.069-2.93c1.86-1.86,2.931-4.44,2.931-7.07
	C386.993,269.369,385.923,266.789,384.062,264.929z"/>
<path d="M338.036,271.999c0-5.523-4.478-10-10-10h-138.5c-5.522,0-10,4.477-10,10c0,5.523,4.478,10,10,10h138.5
	C333.559,281.999,338.036,277.522,338.036,271.999z"/>
<path d="M376.996,215.896h-187.46c-5.522,0-10,4.477-10,10c0,5.523,4.478,10,10,10h187.46c5.522,0,10-4.477,10-10
	C386.996,220.372,382.518,215.896,376.996,215.896z"/>
<path d="M256.007,354.201h-66.47c-5.522,0-10,4.477-10,10c0,5.523,4.478,10,10,10h66.47c5.522,0,10-4.477,10-10
	C266.006,358.678,261.528,354.201,256.007,354.201z"/>
<path d="M256.007,308.097h-66.47c-5.522,0-10,4.477-10,10s4.478,10,10,10h66.47c5.522,0,10-4.477,10-10
	S261.528,308.097,256.007,308.097z"/>
<path d="M376.469,354.201h-66.471c-5.522,0-10,4.477-10,10c0,5.523,4.478,10,10,10h66.471c5.522,0,10-4.477,10-10
	C386.469,358.678,381.991,354.201,376.469,354.201z"/>
<path d="M376.469,308.097h-66.471c-5.522,0-10,4.477-10,10s4.478,10,10,10h66.471c5.522,0,10-4.477,10-10
	S381.991,308.097,376.469,308.097z"/>
<path d="M46.18,196.541v135.633c0,3.235,1.564,6.27,4.199,8.146l21.067,15.002c1.708,1.216,3.739,1.854,5.801,1.854
	c0.708,0,1.42-0.075,2.124-0.228c2.753-0.599,5.125-2.33,6.534-4.769l16.932-29.3c0.879-1.521,1.342-3.247,1.342-5.003V195.538
	c25.803-11.571,43.831-37.483,43.831-67.543c0-40.803-33.195-73.998-73.998-73.998S0.013,87.192,0.013,127.995
	C0.013,158.955,19.134,185.519,46.18,196.541z M84.179,239.099c-4.891,0.653-8.668,4.831-8.668,9.901s3.777,9.248,8.668,9.901
	v15.198c-4.891,0.653-8.668,4.831-8.668,9.901c0,5.07,3.777,9.248,8.668,9.901v21.293L74.09,332.652l-7.911-5.633V201.575
	c2.575,0.272,5.187,0.418,7.832,0.418c3.451,0,6.841-0.256,10.168-0.716V239.099z M74.011,92.765c4.865,0,8.823,3.958,8.823,8.824
	s-3.958,8.823-8.823,8.823c-4.865,0-8.823-3.958-8.823-8.823S69.145,92.765,74.011,92.765z M62.17,75.319
	c-10.003,4.527-16.983,14.595-16.983,26.268c0,15.893,12.93,28.822,28.822,28.822s28.822-12.93,28.822-28.822
	c0-11.674-6.98-21.741-16.983-26.268c24.096,5.414,42.159,26.968,42.159,52.675c0,29.775-24.224,53.999-53.999,53.999
	s-53.999-24.223-53.999-53.999C20.012,102.287,38.075,80.733,62.17,75.319z"/>
<path d="M64.012,34.192c0,5.523,4.478,10,10,10c5.522,0,10-4.477,10-10V10.006c0-5.523-4.478-10-10-10l0,0l0,0
	c-5.522,0-10,4.477-10,10V34.192z"/>
<path d="M32.978,50.065c1.953,1.953,4.512,2.929,7.071,2.929s5.118-0.976,7.071-2.929c3.905-3.905,3.905-10.237,0-14.143
	L29.632,18.435c-3.906-3.905-10.236-3.905-14.143,0c-3.905,3.905-3.905,10.237,0,14.143L32.978,50.065z"/>
<path d="M107.972,53.005c2.56,0,5.118-0.976,7.071-2.929l17.489-17.489c3.905-3.905,3.905-10.237,0-14.143
	c-3.906-3.905-10.236-3.905-14.143,0L100.9,35.933c-3.905,3.905-3.905,10.237,0,14.143
	C102.853,52.029,105.412,53.005,107.972,53.005z"/>
<path d="M144.339,450.995c-2.63,0-5.21,1.07-7.07,2.93c-1.86,1.86-2.93,4.44-2.93,7.07s1.069,5.21,2.93,7.07
	c1.861,1.86,4.44,2.93,7.07,2.93c2.64,0,5.21-1.07,7.069-2.93c1.87-1.86,2.931-4.44,2.931-7.07s-1.061-5.21-2.931-7.07
	C149.549,452.065,146.978,450.995,144.339,450.995z"/>
<g>
</g>
<g>
</g>
<g>
</g>
<g>
</g>
<g>
</g>
<g>
</g>
<g>
</g>
<g>
</g>
<g>
</g>
<g>
</g>
<g>
</g>
<g>
</g>
<g>
</g>
<g>
</g>
<g>
</g>
</svg>
