<?xml version="1.0" encoding="UTF-8" standalone="no"?>
<svg
   xmlns:dc="http://purl.org/dc/elements/1.1/"
   xmlns:cc="http://creativecommons.org/ns#"
   xmlns:rdf="http://www.w3.org/1999/02/22-rdf-syntax-ns#"
   xmlns:svg="http://www.w3.org/2000/svg"
   xmlns="http://www.w3.org/2000/svg"
   xmlns:sodipodi="http://sodipodi.sourceforge.net/DTD/sodipodi-0.dtd"
   xmlns:inkscape="http://www.inkscape.org/namespaces/inkscape"
   height="512pt"
   version="1.1"
   viewBox="0 -34 512.00067 512"
   width="512pt"
   id="svg15"
   sodipodi:docname="delete_folder.svg"
   inkscape:version="0.92.4 (5da689c313, 2019-01-14)">
  <metadata
     id="metadata21">
    <rdf:RDF>
      <cc:Work
         rdf:about="">
        <dc:format>image/svg+xml</dc:format>
        <dc:type
           rdf:resource="http://purl.org/dc/dcmitype/StillImage" />
      </cc:Work>
    </rdf:RDF>
  </metadata>
  <defs
     id="defs19" />
  <sodipodi:namedview
     pagecolor="#ffffff"
     bordercolor="#666666"
     borderopacity="1"
     objecttolerance="10"
     gridtolerance="10"
     guidetolerance="10"
     inkscape:pageopacity="0"
     inkscape:pageshadow="2"
     inkscape:window-width="1920"
     inkscape:window-height="1001"
     id="namedview17"
     showgrid="false"
     inkscape:zoom="0.9777961"
     inkscape:cx="341.33333"
     inkscape:cy="341.33333"
     inkscape:window-x="-9"
     inkscape:window-y="-9"
     inkscape:window-maximized="1"
     inkscape:current-layer="surface1" />
  <g
     id="surface1">
    <path
       d="M 323.5 235.039062 L 291.125 235.039062 L 291.125 215.753906 C 291.125 209.328125 285.867188 204.066406 279.4375 204.066406 L 232.6875 204.066406 C 226.261719 204.066406 221 209.328125 221 215.753906 L 221 235.039062 L 188.625 235.039062 L 202.066406 387.445312 L 309.945312 387.445312 Z M 477.078125 158.835938 C 491.21875 158.835938 502.207031 171.34375 500.21875 185.367188 L 471.585938 393.640625 C 468.546875 415.613281 449.726562 431.976562 427.640625 431.976562 L 84.957031 431.976562 C 62.75 431.976562 44.046875 415.613281 41.007812 393.640625 L 11.90625 185.367188 C 9.917969 171.34375 20.90625 158.71875 35.046875 158.71875 L 477.078125 158.71875 Z M 477.078125 158.835938 "
       style=" stroke:none;fill-rule:nonzero;fill:rgb(0%,67.45098%,91.764706%);fill-opacity:1;"
       id="path2" />
    <path
       d="M 465.742188 120.03125 L 465.742188 158.835938 L 51.0625 158.835938 L 46.503906 58.554688 C 45.335938 33.3125 65.554688 12.15625 90.914062 12.15625 L 186.636719 12.15625 C 202.183594 12.15625 216.675781 20.335938 224.738281 33.777344 L 236.894531 54.113281 C 244.960938 67.554688 259.335938 75.734375 274.996094 75.734375 L 421.210938 75.734375 C 445.753906 75.621094 465.742188 95.488281 465.742188 120.03125 Z M 465.742188 120.03125 "
       style=" stroke:none;fill-rule:nonzero;fill:rgb(0%,93.72549%,81.960784%);fill-opacity:1;"
       id="path4" />
    <path
       d="M 323.5 235.039062 L 309.945312 387.332031 L 202.183594 387.332031 L 188.625 235.039062 Z M 323.5 235.039062 "
       style=" stroke:none;fill-rule:nonzero;fill:rgb(0%,67.45098%,91.764706%);fill-opacity:1;"
       id="path6" />
    <path
       d="M 291.125 215.753906 L 291.125 235.039062 L 221 235.039062 L 221 215.753906 C 221 209.328125 226.261719 204.066406 232.6875 204.066406 L 279.4375 204.066406 C 285.867188 204.066406 291.125 209.210938 291.125 215.753906 Z M 291.125 215.753906 "
       style=" stroke:none;fill-rule:nonzero;fill:rgb(0%,67.45098%,91.764706%);fill-opacity:1;"
       id="path8" />
    <path
       d="M 503.257812 159.070312 C 496.710938 151.472656 487.480469 147.148438 476.960938 147.03125 L 476.960938 119.914062 C 476.960938 88.945312 452.183594 64.164062 421.210938 64.164062 L 274.996094 64.164062 C 263.542969 64.164062 252.789062 57.855469 246.945312 48.035156 L 234.792969 27.351562 C 224.625 10.753906 206.273438 0 186.636719 0 L 90.914062 0 C 75.488281 0 60.996094 6.3125 50.359375 17.53125 C 39.722656 28.75 34.230469 43.59375 34.816406 59.023438 L 38.789062 147.265625 L 35.046875 147.265625 C 24.878906 147.265625 15.296875 151.589844 8.632812 159.1875 C 1.972656 166.898438 -1.066406 176.953125 0.335938 187.003906 L 29.320312 395.628906 C 33.179688 423.210938 57.023438 444.132812 84.835938 444.132812 L 427.519531 444.132812 C 455.453125 444.132812 479.296875 423.09375 483.15625 395.394531 L 511.671875 187.003906 C 513.074219 176.953125 509.921875 166.785156 503.257812 159.070312 Z M 58.191406 58.089844 C 57.839844 49.089844 60.996094 40.324219 67.191406 33.777344 C 73.382812 27.234375 81.800781 23.375 90.800781 23.375 L 186.523438 23.375 C 197.976562 23.375 208.730469 29.6875 214.574219 39.503906 L 226.726562 60.191406 C 236.78125 77.019531 255.246094 87.773438 274.882812 87.773438 L 421.09375 87.773438 C 439.09375 87.773438 453.46875 102.03125 453.46875 120.148438 L 453.46875 147.265625 L 62.28125 147.265625 Z M 488.648438 183.730469 L 460.015625 392.238281 C 457.792969 408.367188 443.886719 420.757812 427.640625 420.757812 L 84.957031 420.757812 C 68.710938 420.757812 54.800781 408.367188 52.582031 392.355469 L 23.476562 183.847656 C 23.011719 180.457031 23.945312 177.1875 26.28125 174.613281 C 28.503906 172.042969 31.660156 170.640625 35.046875 170.640625 L 477.078125 170.640625 C 480.464844 170.640625 483.621094 171.925781 485.84375 174.613281 C 488.179688 177.1875 489.117188 180.339844 488.648438 183.730469 Z M 488.648438 183.730469 "
       style=" stroke:none;fill-rule:nonzero;fill:rgb(3.137255%,21.960784%,38.823529%);fill-opacity:1;"
       id="path10" />
    <path
       inkscape:connector-curvature="0"
       style="fill:#083863;stroke-width:1.00000119"
       d="m 343.10554,222.0781 25.08988,-25.08988 c 5.37891,-5.3789 5.37891,-14.06251 0,-19.44142 -5.37501,-5.37501 -14.06251,-5.37501 -19.44143,0 l -29.91801,29.91801 c -21.50784,-10.89065 -42.87505,-16.26565 -63.69539,-16.26565 -83.55089,0 -148.48847,87.6876 -151.24628,91.40636 -3.58205,4.82423 -3.58205,11.44532 0,16.26955 1.10546,1.51563 25.50784,34.60552 63.14461,60.52743 l -25.09378,25.08987 c -5.37501,5.37891 -5.37501,14.06643 0,19.44143 2.76172,2.75391 6.20703,4.00001 9.79298,4.00001 3.58203,0 7.03126,-1.38282 9.78907,-4.00001 l 29.91801,-29.918 c 21.37112,10.6172 42.73834,16.12892 63.55867,16.12892 83.55089,0 148.48456,-87.6837 151.24628,-91.40637 3.58203,-4.82812 3.58203,-11.44532 0,-16.26955 -1.10547,-1.51954 -25.50784,-34.46879 -63.14461,-60.3907 z M 199.57801,326.58605 186.8944,339.26966 c -25.09378,-16.40627 -44.66801,-37.36334 -54.17975,-48.66413 17.23049,-20.40628 66.31259,-71.97274 122.42594,-71.97274 13.78908,0 28.26566,3.17187 42.87895,9.51563 l -6.89454,6.89064 c -10.61328,-6.89064 -23.02736,-10.6172 -35.98441,-10.6172 -36.39849,0 -66.03914,29.64457 -66.03914,66.18367 -0.13673,13.09377 3.58203,25.50003 10.47656,35.98052 z m 90.58215,-51.56257 c 2.20704,4.82423 3.3086,10.19923 3.3086,15.71877 0,21.2305 -17.23439,38.46489 -38.46489,38.46489 -5.51173,0 -10.75392,-1.10156 -15.71877,-3.30859 z m -70.31259,31.29301 c -2.20702,-4.82423 -3.3125,-10.19924 -3.3125,-15.71877 0,-21.23049 17.2383,-38.6016 38.4688,-38.6016 5.51173,0 10.75002,1.10155 15.71877,3.30859 z m 35.1563,56.25399 c -13.78908,0 -28.26175,-3.17189 -42.87505,-9.51565 l 7.03126,-7.03126 c 10.61329,6.89454 23.01955,10.6211 35.98051,10.6211 36.40239,0 66.03914,-29.64456 66.03914,-66.03914 0,-12.96486 -3.71875,-25.37113 -10.61329,-35.98833 l 12.68361,-12.82032 c 25.09378,16.40627 44.66802,37.36333 54.18367,48.67193 -17.23441,20.53519 -66.3165,72.10167 -122.42985,72.10167 z m 0,0"
       id="path8-2" />
  </g>
</svg>
