<svg height="464pt" viewBox="0 -10 464.00155 464" width="464pt" xmlns="http://www.w3.org/2000/svg"><path d="m438.261719 248.332031c9.824219 0 17.984375 7.589844 18.691406 17.390625.707031 9.804688-6.277344 18.488282-16.003906 19.898438-.890625.132812-1.789063.199218-2.6875.199218h-142.511719c-.902344 0-1.804688-.066406-2.699219-.199218-9.730469-1.410156-16.714843-10.097656-16.003906-19.902344s8.875-17.394531 18.703125-17.386719zm0 0" fill="#6fe3ff"/><path d="m441 285.992188v129.980468c.003906 11.785156-9.554688 21.339844-21.339844 21.339844h-105.320312c-11.785156 0-21.34375-9.554688-21.339844-21.339844v-129.980468l.050781-.371094c.894531.132812 1.796875.199218 2.699219.199218h142.511719c.898437 0 1.796875-.066406 2.6875-.199218zm0 0" fill="#6fe3ff"/><path d="m367 211h28.960938c3.550781.007812 6.429687 2.886719 6.429687 6.441406v30.890625h-70.78125v-30.890625c0-3.554687 2.878906-6.433594 6.429687-6.441406zm0 0" fill="#6fe3ff"/><path d="m367 141.960938v69.039062h-28.960938c-3.550781.007812-6.429687 2.886719-6.429687 6.441406v30.890625h-35.859375c-9.828125-.007812-17.992188 7.582031-18.703125 17.386719s6.273437 18.492188 16.003906 19.902344l-.050781.371094v65.019531h-241.550781c22.21875.003906 40.230469-18.003907 40.230469-40.222657v-168.828124c0-22.214844 18.007812-40.222657 40.21875-40.21875h194.871093c22.21875-.007813 40.230469 18 40.230469 40.21875zm0 0" fill="#e48e66"/><path d="m317.671875 93.550781v8.191407h-185.773437c-22.210938-.003907-40.21875 18.003906-40.21875 40.21875v168.828124c0 22.21875-18.011719 40.226563-40.230469 40.222657h-4.230469c-22.214844.003906-40.222656-18.007813-40.21875-40.222657v-263.566406c0-22.214844 18.007812-40.222656 40.21875-40.222656h90.242188c11.292968 0 22.070312 4.753906 29.6875 13.089844l27.390624 29.960937c1.902344 2.085938 4.597657 3.273438 7.421876 3.269531h75.488281c22.214843.003907 40.222656 18.015626 40.222656 40.230469zm0 0" fill="#f8ec7d"/><g fill="#63316d"><path d="m367 350.289062c-3.867188 0-7 3.136719-7 7v45.082032c0 3.867187 3.132812 7 7 7s7-3.132813 7-7v-45.082032c0-3.863281-3.132812-7-7-7zm0 0"/><path d="m401.140625 350.289062c-3.867187 0-7 3.136719-7 7v45.082032c0 3.867187 3.132813 7 7 7s7-3.132813 7-7v-45.082032c0-3.863281-3.132813-7-7-7zm0 0"/><path d="m332.859375 350.289062c-3.867187 0-7 3.136719-7 7v45.082032c0 3.867187 3.132813 7 7 7s7-3.132813 7-7v-45.082032c0-3.863281-3.132813-7-7-7zm0 0"/><path d="m438.261719 241.332031h-28.871094v-23.890625c-.007813-7.417968-6.015625-13.429687-13.429687-13.441406h-21.960938v-62.039062c-.03125-26.070313-21.160156-47.191407-47.230469-47.21875h-2.097656v-1.191407c-.027344-26.070312-21.152344-47.199219-47.222656-47.230469h-75.488281c-.859376.003907-1.675782-.359374-2.253907-.992187l-27.390625-29.960937c-8.953125-9.777344-21.597656-15.351563-34.855468-15.367188h-90.242188c-26.066406.03125-47.1875 21.152344-47.21875 47.222656v263.566406c.03125 26.066407 21.152344 47.191407 47.21875 47.222657h238.78125v57.960937c.019531 15.640625 12.695312 28.320313 28.339844 28.339844h105.320312c15.644532-.019531 28.320313-12.699219 28.339844-28.339844v-125.070312c11.386719-4.65625 17.890625-16.71875 15.519531-28.789063-2.375-12.074219-12.957031-20.777343-25.257812-20.777343zm-42.871094 0h-56.78125v-23.332031h56.78125zm-348.171875 102.679688c-18.335938-.023438-33.199219-14.882813-33.21875-33.222657v-263.566406c.019531-18.339844 14.882812-33.203125 33.21875-33.222656h90.242188c9.328124.011719 18.222656 3.933594 24.523437 10.8125l27.375 29.949219c3.230469 3.539062 7.804687 5.558593 12.601563 5.558593h75.488281c18.34375.023438 33.203125 14.890626 33.222656 33.230469v1.191407h-178.773437c-26.066407.027343-47.1875 21.152343-47.21875 47.21875v168.828124c-.023438 18.34375-14.890626 33.203126-33.230469 33.222657zm37.757812 0c8.78125-8.828125 13.707032-20.769531 13.703126-33.222657v-168.828124c.019531-18.339844 14.878906-33.199219 33.21875-33.21875h194.871093c18.339844.015624 33.207031 14.878906 33.230469 33.21875v62.039062h-21.960938c-7.414062.011719-13.421874 6.023438-13.429687 13.441406v23.890625h-28.859375c-14.21875-.003906-25.746094 11.519531-25.75 25.738281.046875 10.4375 6.355469 19.824219 16 23.808594v53.132813zm334.683594 86.300781h-105.320312c-7.914063-.011719-14.332032-6.425781-14.339844-14.339844v-123.152344h134v123.152344c-.007812 7.914063-6.425781 14.328125-14.339844 14.339844zm26.898438-154.933594c-1.773438 1.796875-4.089844 2.957032-6.589844 3.3125l-.039062.003906c-.554688.082032-1.113282.125-1.667969.125h-142.511719c-6.488281 0-11.746094-5.257812-11.746094-11.746093 0-6.484375 5.257813-11.742188 11.746094-11.742188h142.511719c4.746093 0 9.027343 2.863281 10.84375 7.25 1.816406 4.390625.8125 9.441407-2.546875 12.796875zm0 0"/></g></svg>