<?xml version="1.0" encoding="UTF-8" standalone="no"?>
<svg
   xmlns:dc="http://purl.org/dc/elements/1.1/"
   xmlns:cc="http://creativecommons.org/ns#"
   xmlns:rdf="http://www.w3.org/1999/02/22-rdf-syntax-ns#"
   xmlns:svg="http://www.w3.org/2000/svg"
   xmlns="http://www.w3.org/2000/svg"
   xmlns:sodipodi="http://sodipodi.sourceforge.net/DTD/sodipodi-0.dtd"
   xmlns:inkscape="http://www.inkscape.org/namespaces/inkscape"
   height="640pt"
   viewBox="-30 0 640 640"
   width="640pt"
   version="1.1"
   id="svg20"
   sodipodi:docname="delete_files.svg"
   inkscape:version="0.92.4 (5da689c313, 2019-01-14)">
  <metadata
     id="metadata26">
    <rdf:RDF>
      <cc:Work
         rdf:about="">
        <dc:format>image/svg+xml</dc:format>
        <dc:type
           rdf:resource="http://purl.org/dc/dcmitype/StillImage" />
      </cc:Work>
    </rdf:RDF>
  </metadata>
  <defs
     id="defs24" />
  <sodipodi:namedview
     pagecolor="#ffffff"
     bordercolor="#666666"
     borderopacity="1"
     objecttolerance="10"
     gridtolerance="10"
     guidetolerance="10"
     inkscape:pageopacity="0"
     inkscape:pageshadow="2"
     inkscape:window-width="1920"
     inkscape:window-height="1001"
     id="namedview22"
     showgrid="false"
     inkscape:zoom="0.78223688"
     inkscape:cx="426.66667"
     inkscape:cy="426.66667"
     inkscape:window-x="-9"
     inkscape:window-y="-9"
     inkscape:window-maximized="1"
     inkscape:current-layer="svg20" />
  <path
     d="M 300.16797,101.44922 284.85938,0 H 60.257813 C 26.437501,0 -0.417968,27.554688 -0.417968,61.371094 V 486.08984 c 0,33.81641 26.855469,60.8125 60.675781,60.8125 H 273.3125 l 152.5334,1.54215 0.95879,-399.67886 z"
     id="path2"
     inkscape:connector-curvature="0"
     style="fill:#00acea"
     sodipodi:nodetypes="ccsssscccc" />
  <path
     d="m285.277344.140625 141.527344 148.625h-94.210938c-26.164062 0-47.316406-21.152344-47.316406-47.316406zm0 0"
     fill="#00efd1"
     id="path4" />
  <path
     d="m 225.45903,131.4887 c 86.28125,12.10156 152.65625,86.13672 152.65625,175.75391 0,97.96875 -79.45703,177.43359 -177.42578,177.43359 -67.35157,0 -126.078133,-37.57422 -156.000008,-92.96094 -13.636718,-25.1875 -21.429687,-53.99219 -21.429687,-84.60937 0,-97.96875 79.460935,-177.42969 177.429695,-177.42969 8.35156,0.14062 16.55859,0.69922 24.76953,1.8125 z m 0,0"
     id="path14"
     inkscape:connector-curvature="0"
     style="fill:#ff0000" />
  <path
     d="m 253.38617,255.78597 c -5.42969,-5.42578 -14.19531,-5.42578 -19.625,0 L 203.42523,286.1219 173.0893,255.78597 c -5.42579,-5.42578 -14.19532,-5.42578 -19.6211,0 -5.42969,5.42968 -5.42969,14.19531 0,19.625 l 30.33594,30.33593 -30.33594,30.33594 c -5.42969,5.42578 -5.42969,14.19531 0,19.6211 2.78516,2.78125 6.26172,4.03515 9.87891,4.03515 3.61719,0 7.09765,-1.39062 9.88281,-4.03515 l 30.33594,-30.33985 30.33594,30.33985 c 2.78515,2.78125 6.26171,4.03515 9.8789,4.03515 3.61719,0 7.10156,-1.39062 9.88281,-4.03515 5.42579,-5.42579 5.42579,-14.19532 0,-19.6211 l -30.33593,-30.33594 30.33593,-30.33593 c 5.14844,-5.42969 5.14844,-14.19532 -0.27734,-19.625 z m 0,0"
     id="path16"
     inkscape:connector-curvature="0"
     style="fill:#ffffff" />
  <path
     d="m 201.37093,161.06194 c -78.20703,0 -141.804681,63.60156 -141.804681,141.80859 0,78.20703 63.597651,141.80078 141.804681,141.80078 78.20703,0 141.80078,-63.59375 141.80078,-141.80078 0,-78.20703 -63.59375,-141.80859 -141.80078,-141.80859 z m 0,255.78125 c -62.90234,0 -113.976556,-51.07422 -113.976556,-113.97266 0,-62.90234 51.074216,-113.97656 113.976556,-113.97656 62.89844,0 113.96875,51.07422 113.96875,113.97656 0,62.89844 -51.07031,113.97266 -113.96875,113.97266 z m 0,0"
     id="path18"
     inkscape:connector-curvature="0"
     style="fill:#ffffff" />
</svg>
