<?xml version="1.0" encoding="UTF-8" standalone="no"?>
<svg
   xmlns:dc="http://purl.org/dc/elements/1.1/"
   xmlns:cc="http://creativecommons.org/ns#"
   xmlns:rdf="http://www.w3.org/1999/02/22-rdf-syntax-ns#"
   xmlns:svg="http://www.w3.org/2000/svg"
   xmlns="http://www.w3.org/2000/svg"
   xmlns:xlink="http://www.w3.org/1999/xlink"
   xmlns:sodipodi="http://sodipodi.sourceforge.net/DTD/sodipodi-0.dtd"
   xmlns:inkscape="http://www.inkscape.org/namespaces/inkscape"
   height="511pt"
   version="1.1"
   viewBox="1 -39 511.9992 511"
   width="511pt"
   id="svg13"
   sodipodi:docname="folder_up.svg"
   inkscape:version="0.92.4 (5da689c313, 2019-01-14)">
  <metadata
     id="metadata19">
    <rdf:RDF>
      <cc:Work
         rdf:about="">
        <dc:format>image/svg+xml</dc:format>
        <dc:type
           rdf:resource="http://purl.org/dc/dcmitype/StillImage" />
      </cc:Work>
    </rdf:RDF>
  </metadata>
  <defs
     id="defs17">
    <clipPath
       clipPathUnits="userSpaceOnUse"
       id="clipPath26">
      <use
         x="0"
         y="0"
         xlink:href="#g22"
         id="use28"
         width="100%"
         height="100%" />
    </clipPath>
  </defs>
  <sodipodi:namedview
     pagecolor="#ffffff"
     bordercolor="#666666"
     borderopacity="1"
     objecttolerance="10"
     gridtolerance="10"
     guidetolerance="10"
     inkscape:pageopacity="0"
     inkscape:pageshadow="2"
     inkscape:window-width="1920"
     inkscape:window-height="1013"
     id="namedview15"
     showgrid="false"
     inkscape:zoom="0.97970959"
     inkscape:cx="340.66667"
     inkscape:cy="422.32352"
     inkscape:window-x="-9"
     inkscape:window-y="-9"
     inkscape:window-maximized="1"
     inkscape:current-layer="surface1" />
  <g
     id="surface1">
    <path
       d="M 500.222656 135.152344 L 500.222656 378.183594 C 500.222656 401.96875 480.96875 421.21875 457.1875 421.21875 L 69.535156 421.21875 L 69.535156 135.152344 C 69.535156 111.371094 88.789062 92.117188 112.570312 92.117188 L 457.1875 92.117188 C 480.96875 92.117188 500.222656 111.371094 500.222656 135.152344 Z M 331.933594 278.640625 L 382.78125 229.035156 L 312.566406 218.84375 L 281.199219 155.199219 L 249.828125 218.84375 L 179.613281 229.035156 L 230.460938 278.640625 L 218.457031 348.628906 L 281.3125 315.558594 L 344.164062 348.628906 Z M 331.933594 278.640625 "
       style=" stroke:none;fill-rule:nonzero;fill:rgb(0%,67.45098%,91.764706%);fill-opacity:1;"
       id="path2" />
    <path
       d="M 204.867188 28.132812 L 257.074219 92.003906 L 112.570312 92.003906 C 88.789062 92.003906 69.535156 111.257812 69.535156 135.039062 L 69.535156 421.105469 L 54.699219 421.105469 C 30.917969 421.105469 11.664062 401.855469 11.664062 378.070312 L 11.664062 55.425781 C 11.664062 31.644531 30.917969 12.390625 54.699219 12.390625 L 171.574219 12.390625 C 184.371094 12.390625 196.601562 18.167969 204.867188 28.132812 Z M 204.867188 28.132812 "
       style=" stroke:none;fill-rule:nonzero;fill:rgb(0%,93.72549%,81.960784%);fill-opacity:1;"
       id="path6" />
    <path
       d="M 457.1875 80.90625 L 262.398438 80.90625 L 213.585938 20.769531 C 203.167969 8.085938 187.878906 0.5 171.457031 0.5 L 54.699219 0.5 C 24.6875 0.5 0 25.414062 0 55.425781 L 0 378.300781 C 0 408.195312 24.6875 433.109375 54.699219 433.109375 L 457.300781 433.109375 C 487.3125 433.109375 512 408.195312 512 378.183594 L 512 135.152344 C 511.886719 105.140625 487.199219 80.90625 457.1875 80.90625 Z M 57.757812 135.152344 L 57.757812 410.460938 L 54.699219 410.460938 C 37.144531 410.460938 22.648438 395.738281 22.648438 378.183594 L 22.648438 55.425781 C 22.648438 37.871094 37.144531 23.148438 54.699219 23.148438 L 171.460938 23.148438 C 180.972656 23.148438 189.917969 27.679688 196.035156 35.152344 L 233.066406 80.90625 L 112.570312 80.90625 C 82.671875 80.90625 57.757812 105.140625 57.757812 135.152344 Z M 489.238281 378.1875 C 489.238281 395.625 474.742188 410.460938 457.1875 410.460938 L 80.40625 410.460938 L 80.40625 135.152344 C 80.40625 117.710938 95.128906 103.554688 112.570312 103.554688 L 457.1875 103.554688 C 474.628906 103.554688 489.238281 117.710938 489.238281 135.152344 Z M 489.238281 378.1875 "
       style=" stroke:none;fill-rule:nonzero;fill:rgb(3.137255%,21.960784%,38.823529%);fill-opacity:1;"
       id="path8" />
    <g
       id="g24"
       clip-path="url(#clipPath26)">
      <g
         inkscape:label="Clip"
         id="g22" />
    </g>
    <path
       style="stroke-width:1.02071059;fill:#00abe8;fill-opacity:1"
       d="m 297.96353,469.56523 7.93964,-45.71065 -33.37056,-32.86091 c -18.3538,-18.0735 -33.15351,-33.03899 -32.88824,-33.25664 0.26526,-0.21765 20.92203,-3.34371 45.90393,-6.94681 l 45.42162,-6.55107 20.96714,-42.14268 20.96714,-42.14267 20.882,42.14267 20.88199,42.14268 45.42162,6.51894 c 24.9819,3.58542 45.64985,6.72266 45.92878,6.97165 0.27893,0.24899 -14.49894,15.22893 -32.83969,33.28877 l -33.34684,32.83607 8.03854,45.38547 c 4.42121,24.96201 7.89232,45.53171 7.71358,45.71044 -0.17872,0.17873 -16.87197,-8.39896 -37.09608,-19.06154 -20.22413,-10.66258 -38.79181,-20.36823 -41.26153,-21.56812 l -4.49042,-2.1816 -39.79221,20.96819 c -21.88572,11.53251 -40.49598,21.23825 -41.35613,21.56833 -1.26403,0.48505 -0.0415,-8.16497 6.37572,-45.11052 z"
       id="path15"
       inkscape:connector-curvature="0"
       transform="matrix(0.75146656,0,0,0.75146656,1,-39.4996)" />
    <path
       style="fill:#00abe8;fill-opacity:1;stroke-width:1.02071059"
       d="m 291.67256,511.86112 c 0,-1.35402 2.06602,-14.58996 4.59117,-29.41319 2.52514,-14.82322 5.78631,-34.07078 7.24703,-42.77233 l 2.65587,-15.82102 -32.79184,-32.65373 c -29.48739,-29.36319 -32.55769,-32.72818 -30.4682,-33.39259 1.278,-0.40637 21.5871,-3.52115 45.13134,-6.92173 23.54424,-3.40057 42.89976,-6.28738 43.01226,-6.41512 0.1125,-0.12774 9.55931,-18.95292 20.99291,-41.83373 l 20.78837,-41.60146 20.90841,41.85664 c 11.49962,23.02116 21.25553,41.85665 21.6798,41.85665 0.42428,0 10.30413,1.39121 21.95524,3.09157 11.65111,1.70037 30.59988,4.46418 42.1084,6.1418 11.50851,1.67763 22.04072,3.3015 23.40491,3.60861 2.22878,0.50175 -0.86071,3.90063 -30.46157,33.512 l -32.94191,32.95361 7.2518,41.74788 c 3.9885,22.96133 7.50069,43.25958 7.8049,45.10721 l 0.55308,3.35933 -6.43357,-3.24166 c -3.53847,-1.7829 -21.68468,-11.21787 -40.32491,-20.96659 -18.64024,-9.74871 -34.57466,-17.72493 -35.40984,-17.72493 -0.83518,0 -13.37292,6.24578 -27.86166,13.87951 -59.30386,31.24563 -53.39199,28.40626 -53.39199,25.64327 z"
       id="path17"
       inkscape:connector-curvature="0"
       transform="matrix(0.75146656,0,0,0.75146656,1,-39.4996)" />
    <path
       style="fill:#00abe8;fill-opacity:1;stroke-width:1.02071059"
       d="m 106.14501,410.84649 0.26857,-187.05119 2.37073,-5.87122 c 4.48779,-11.11419 13.35634,-19.82759 25.09243,-24.65346 l 5.19958,-2.13806 234.76345,-0.3012 c 172.21078,-0.22094 236.38439,0.008 240.84696,0.85909 13.24307,2.52578 24.40439,11.08929 30.4445,23.35849 l 3.2797,6.66201 v 172.52156 172.52156 l -3.25926,6.88036 c -4.21841,8.90511 -11.57659,16.26329 -20.48171,20.4817 l -6.88035,3.25926 -255.95659,0.26115 -255.95658,0.26115 z m 225.65905,83.82755 40.90675,-21.55486 6.17839,3.053 c 3.39811,1.67915 21.97093,11.37883 41.27294,21.55485 31.04275,16.36575 36.90847,19.27013 36.85128,18.24669 -0.008,-0.14035 -3.664,-20.92457 -8.1248,-46.18716 l -8.11056,-45.93198 33.89775,-33.28663 c 33.10712,-32.51023 33.82634,-33.30151 30.83563,-33.9247 -1.68417,-0.35095 -22.35357,-3.40443 -45.93198,-6.78553 -23.57842,-3.3811 -43.55883,-6.40016 -44.40091,-6.70901 -1.05186,-0.3858 -1.20299,-0.23054 -0.48289,0.49604 0.5765,0.58169 20.32725,3.83889 43.89056,7.23825 23.56331,3.39934 43.70786,6.44605 44.76567,6.77046 1.54409,0.47355 -4.55389,7.06933 -30.92874,33.45354 l -32.85202,32.8637 7.78274,44.69298 c 4.2805,24.58114 7.61386,44.86185 7.40745,45.06826 -0.2064,0.20641 -13.67533,-6.55036 -29.93095,-15.01502 -16.25563,-8.46467 -34.66932,-17.94152 -40.91933,-21.05968 l -11.36365,-5.66936 -39.67189,20.73695 c -21.81952,11.40533 -40.088,20.97162 -40.59659,21.25842 -1.40953,0.79486 -0.18396,-7.85585 7.18391,-50.70758 l 6.73546,-39.17363 -32.89148,-32.90317 c -29.38577,-29.39621 -32.63489,-32.96721 -30.48403,-33.50409 2.32406,-0.5801 85.79069,-12.94527 87.38239,-12.94527 0.43157,0 10.19344,-18.83546 21.69305,-41.85659 l 20.90837,-41.85658 20.1678,40.32551 c 11.0923,22.17905 20.36095,40.32552 20.597,40.32552 0.54076,0 -39.09793,-80.84363 -40.20179,-81.99211 -0.44702,-0.46509 -10.25403,18.25219 -21.79334,41.59396 -11.53931,23.34176 -21.41886,42.43958 -21.95455,42.43958 -1.16207,0 -83.83737,11.93753 -88.98467,12.84854 l -3.57249,0.63229 33.95584,33.32247 33.95583,33.32248 -7.66184,44.40091 c -4.21401,24.42051 -7.8533,45.20473 -8.08733,46.18716 -0.23402,0.98243 0.046,1.78624 0.6224,1.78624 0.57633,0 19.45592,-9.69968 41.95462,-21.55485 z"
       id="path19"
       inkscape:connector-curvature="0"
       transform="matrix(0.75146656,0,0,0.75146656,1,-39.4996)" />
    <path
       style="fill:#00abe8;fill-opacity:1;stroke-width:1.02071059"
       d="m 106.14504,410.33809 0.26854,-187.5635 3.27506,-6.91412 c 4.26261,-8.99896 11.98723,-16.72358 21.25009,-21.25009 l 7.11688,-3.47782 H 377.41225 616.7689 l 7.65533,3.66182 c 9.12701,4.36579 16.21088,11.12297 20.77249,19.81452 l 3.21421,6.12426 v 173.01046 173.01045 l -3.25926,6.88036 c -4.02516,8.49715 -11.16264,15.81829 -19.83409,20.34443 l -6.50726,3.39653 -256.46691,0.2631 -256.4669,0.2631 z m 225.53065,84.28973 41.05072,-21.60109 11.78974,6.03525 c 6.48436,3.31938 25.24215,13.09676 41.68398,21.7275 16.44182,8.63074 30.07527,15.51123 30.29653,15.28996 0.22127,-0.22126 -3.24431,-21.06237 -7.70128,-46.31358 l -8.10358,-45.91128 33.43053,-32.80949 c 18.3868,-18.04522 33.08371,-33.16683 32.65983,-33.60357 -0.89104,-0.91804 -40.3146,-6.75638 -42.6095,-6.31014 -0.84209,0.16374 7.40316,1.60056 18.32277,3.19294 10.91961,1.59238 20.49607,3.14169 21.28102,3.4429 0.93264,0.35788 -9.93843,11.91731 -31.37235,33.35885 l -32.79954,32.81118 7.07832,40.7871 c 3.89308,22.43289 7.40377,42.79504 7.80154,45.24922 l 0.72321,4.46214 -27.92505,-14.44953 c -15.35877,-7.94724 -33.94112,-17.49125 -41.29409,-21.20891 l -13.36905,-6.75939 -40.21826,21.07348 c -37.42797,19.61143 -40.23927,20.91174 -40.52105,18.74225 -0.16654,-1.28217 2.95013,-21.58312 6.92591,-45.1132 l 7.22869,-42.78198 -32.80971,-32.82137 c -29.30056,-29.31096 -32.55223,-32.88532 -30.40225,-33.4194 1.3241,-0.32892 16.64637,-2.69043 34.04949,-5.2478 49.77335,-7.31414 53.69696,-7.93093 53.25606,-8.37184 -0.35052,-0.35051 -78.91021,10.71022 -89.41639,12.58928 l -3.49758,0.62557 33.90798,33.28085 33.90798,33.28086 -7.68994,44.40091 c -7.55399,43.61601 -8.20908,47.9734 -7.21231,47.9734 0.27331,0 18.96974,-9.72048 41.54763,-21.60107 z M 461.62088,350.32923 c -2.14038,-0.80393 -38.47073,-5.68515 -39.57477,-5.31714 -1.32523,0.44175 32.87211,5.59887 37.53335,5.66021 1.68417,0.0222 2.60281,-0.13221 2.04142,-0.34307 z m -42.08489,-6.24925 c -0.69105,-0.27959 -2.06901,-0.29661 -3.06213,-0.0379 -0.99312,0.25879 -0.42771,0.48756 1.25646,0.50836 1.68418,0.0208 2.49672,-0.19094 1.80567,-0.47054 z m -65.83666,-44.78933 19.16226,-38.31389 17.84116,35.84949 c 9.81265,19.71722 18.15169,36.04594 18.5312,36.28604 0.37951,0.24009 -7.42893,-16.10073 -17.35208,-36.31294 -9.92316,-20.21222 -18.38542,-36.75384 -18.80502,-36.75916 -0.4196,-0.005 -9.49235,17.44449 -20.16165,38.77734 -10.66931,21.33285 -19.1691,38.787 -18.88843,38.787 0.28067,0 9.13332,-17.24125 19.67256,-38.31388 z"
       id="path21"
       inkscape:connector-curvature="0"
       transform="matrix(0.75146656,0,0,0.75146656,1,-39.4996)" />
    <path
       style="fill:#00abe8;fill-opacity:1;stroke-width:1.02071059"
       d="m 106.14767,410.33613 0.26591,-187.56154 3.27506,-6.91412 c 4.30246,-9.0831 12.36975,-17.15039 21.45285,-21.45285 l 6.91412,-3.27506 236.29451,-0.27418 c 158.3478,-0.18373 237.91865,0.0706 241.21806,0.77088 12.80515,2.71797 24.07161,11.7205 29.90734,23.89764 l 3.44576,7.19009 v 171.53698 171.53698 l -3.57721,7.46438 c -4.30851,8.99037 -11.78591,16.68695 -20.45826,21.05793 l -6.07549,3.06213 -256.46428,0.26114 -256.46427,0.26113 z m 230.94651,81.12975 c 0.56139,-0.56617 -9.42881,4.34668 -22.20045,10.91742 l -23.22117,11.94682 v -2.91062 c 0,-2.64224 7.35043,-47.62869 12.29358,-75.23973 2.08479,-11.64505 2.3058,-13.48522 1.52596,-12.70537 -0.49882,0.49882 -15.86096,89.13777 -15.86096,91.51715 0,1.29447 44.9389,-20.98007 47.46304,-23.52567 z m 119.25334,22.46642 c -0.21838,-1.26313 -3.84199,-22.04735 -8.05246,-46.18716 l -7.65539,-43.89056 33.45659,-33.02881 c 32.83423,-32.41439 33.40245,-33.0446 30.54559,-33.87818 -1.60105,-0.46716 -5.50527,-1.0883 -8.67604,-1.38033 l -5.76503,-0.53094 5.10355,0.99171 c 2.80696,0.54544 6.21971,1.24599 7.5839,1.55678 2.23113,0.50829 -0.81932,3.8659 -30.36062,33.4177 l -32.84097,32.85263 7.64419,43.89027 c 4.20431,24.13966 7.64672,44.50049 7.64982,45.24628 0.003,0.80954 -11.40923,-4.49145 -28.31911,-13.15384 -15.57859,-7.98041 -27.9769,-14.13739 -27.55179,-13.68218 0.84927,0.90939 56.00466,29.96306 57.01086,30.03106 0.34319,0.0232 0.4453,-0.99131 0.22691,-2.25443 z m -99.34948,-32.93841 c 0,-0.28069 -4.13388,1.5658 -9.1864,4.10333 -5.05251,2.53753 -9.18639,4.84334 -9.18639,5.12404 0,0.28069 4.13388,-1.5658 9.18639,-4.10333 5.05252,-2.53753 9.1864,-4.84334 9.1864,-5.12404 z m 38.787,3.09193 c 0,-0.27558 -4.59319,-2.80603 -10.2071,-5.62322 -5.61391,-2.81719 -10.20711,-4.89279 -10.20711,-4.61244 0,0.39036 18.96005,10.43941 20.15904,10.68454 0.14034,0.0287 0.25517,-0.17331 0.25517,-0.44888 z m -22.56055,-11.5486 c -0.81148,-0.34009 -15.20574,6.68824 -15.20574,7.42456 0,0.24904 3.58851,-1.24952 7.97447,-3.33014 4.38595,-2.08062 7.64003,-3.92311 7.23127,-4.09442 z M 272.39125,390.28337 c -25.43961,-25.44923 -31.63243,-32.1527 -30.10489,-32.58727 1.05774,-0.30092 7.61997,-1.36151 14.58274,-2.35687 6.96277,-0.99537 12.15463,-1.97808 11.53745,-2.1838 -0.61717,-0.20573 -7.61392,0.5747 -15.54834,1.73428 -7.93442,1.15957 -14.7339,2.1156 -15.10995,2.1245 -0.73457,0.0174 65.32439,65.16716 66.16675,65.25608 0.27735,0.0293 -13.90834,-14.36484 -31.52376,-31.98692 z m 213.72669,-36.40603 c -2.24557,-0.46447 -5.23115,-0.81051 -6.63462,-0.76896 -3.54328,0.1049 3.49848,1.57343 7.65533,1.59649 2.55256,0.0142 2.3827,-0.12355 -1.02071,-0.82753 z m -211.03193,-1.66575 c -0.98243,-0.25673 -2.59005,-0.25673 -3.57249,0 -0.98243,0.25673 -0.17862,0.4668 1.78625,0.4668 1.96487,0 2.76868,-0.21007 1.78624,-0.4668 z m 200.05929,0 c -0.98244,-0.25673 -2.59006,-0.25673 -3.57249,0 -0.98243,0.25673 -0.17863,0.4668 1.78624,0.4668 1.96487,0 2.76868,-0.21007 1.78625,-0.4668 z m -192.91431,-1.02072 c -0.98244,-0.25672 -2.59006,-0.25672 -3.57249,0 -0.98244,0.25674 -0.17863,0.46681 1.78624,0.46681 1.96487,0 2.76868,-0.21007 1.78625,-0.46681 z m 185.74807,0.087 c -0.33917,-0.33917 -1.21954,-0.37543 -1.95636,-0.0805 -0.81426,0.32583 -0.5724,0.56769 0.61668,0.61667 1.07599,0.0443 1.67885,-0.19693 1.33968,-0.5361 z m -174.77543,-1.36622 c 2.61904,-0.54173 3.16796,-0.8655 1.53106,-0.90307 -1.40348,-0.0323 -4.38905,0.32148 -6.63462,0.78595 -2.61904,0.54173 -3.16797,0.8655 -1.53106,0.90307 1.40347,0.0323 4.38905,-0.32148 6.63462,-0.78595 z m 167.16079,0.29263 c -0.69106,-0.2796 -2.06901,-0.29661 -3.06214,-0.0379 -0.99312,0.25879 -0.4277,0.48755 1.25647,0.50835 1.68417,0.0208 2.49672,-0.19093 1.80567,-0.47054 z m -6.65405,-1.0548 c -0.98243,-0.25673 -2.59005,-0.25673 -3.57248,0 -0.98244,0.25674 -0.17863,0.46681 1.78624,0.46681 1.96487,0 2.76868,-0.21007 1.78624,-0.46681 z M 302.6452,348.12874 c -0.98244,-0.25673 -2.59005,-0.25673 -3.57249,0 -0.98243,0.25674 -0.17862,0.4668 1.78625,0.4668 1.96486,0 2.76867,-0.21006 1.78624,-0.4668 z m 143.9202,0 c -0.98244,-0.25673 -2.59005,-0.25673 -3.57249,0 -0.98243,0.25674 -0.17862,0.4668 1.78625,0.4668 1.96486,0 2.76867,-0.21006 1.78624,-0.4668 z m -136.77523,-1.02071 c -0.98243,-0.25673 -2.59005,-0.25673 -3.57248,0 -0.98244,0.25674 -0.17863,0.4668 1.78624,0.4668 1.96487,0 2.76868,-0.21006 1.78624,-0.4668 z m 130.16003,0.0341 c -0.69105,-0.27959 -2.06901,-0.2966 -3.06213,-0.0379 -0.99312,0.25879 -0.42771,0.48755 1.25647,0.50835 1.68417,0.0208 2.49672,-0.19093 1.80566,-0.47054 z m -123.01505,-1.0548 c -0.98244,-0.25673 -2.59006,-0.25673 -3.57249,0 -0.98243,0.25674 -0.17862,0.4668 1.78624,0.4668 1.96487,0 2.76868,-0.21006 1.78625,-0.4668 z m 115.87008,0.0341 c -0.69105,-0.27959 -2.06901,-0.2966 -3.06213,-0.0379 -0.99312,0.25879 -0.42771,0.48755 1.25646,0.50835 1.68417,0.0208 2.49672,-0.19093 1.80567,-0.47054 z M 324.6099,345.1007 c -0.69105,-0.27959 -2.06901,-0.29661 -3.06213,-0.0379 -0.99312,0.2588 -0.42771,0.48756 1.25646,0.50836 1.68418,0.0208 2.49672,-0.19093 1.80567,-0.47054 z m 101.52002,0.0529 c -0.33917,-0.33918 -1.21954,-0.37543 -1.95636,-0.0805 -0.81425,0.32583 -0.5724,0.5677 0.61668,0.61667 1.07599,0.0443 1.67886,-0.19692 1.33968,-0.53609 z m -7.14497,-1.02072 c -0.33917,-0.33917 -1.21955,-0.37542 -1.95637,-0.0805 -0.81425,0.32583 -0.57239,0.5677 0.61669,0.61667 1.07599,0.0443 1.67885,-0.19692 1.33968,-0.53609 z M 355.46697,295.7554 c 8.14392,-16.28034 14.57746,-29.60061 14.29676,-29.60061 -0.28069,0 -7.17355,13.32027 -15.31747,29.60061 -8.14391,16.28033 -14.57745,29.6006 -14.29675,29.6006 0.28069,0 7.17355,-13.32027 15.31746,-29.6006 z m 38.39109,5.46906 c -6.17813,-12.27093 -11.25756,-21.96907 -11.28761,-21.55141 -0.0789,1.09646 21.75118,44.63158 22.16991,44.21285 0.19286,-0.19286 -4.70418,-10.39051 -10.8823,-22.66144 z"
       id="path23"
       inkscape:connector-curvature="0"
       transform="matrix(0.75146656,0,0,0.75146656,1,-39.4996)" />
    <path
       style="fill:#00abe8;fill-opacity:1;stroke-width:1.02071059"
       d="M 105.90322,410.70354 V 223.52133 l 4.11199,-8.21549 c 4.94586,-9.88153 11.53171,-16.27872 21.88734,-21.26036 l 7.11618,-3.42328 h 236.36403 c 257.99715,0 242.53306,-0.34607 252.77841,5.65685 6.63813,3.88938 13.40217,11.32328 17.24352,18.95121 l 3.51659,6.98301 v 172.0407 172.04071 l -3.68532,7.31807 c -4.51834,8.97224 -12.24214,16.76745 -20.90112,21.09439 l -6.36093,3.1786 H 361.93857 105.90322 Z m 348.63224,93.78718 c -1.45321,-6.82576 -1.43062,-3.93621 0.0425,5.43628 l 0.69401,4.41556 -16.7294,-8.35826 c -9.20117,-4.59706 -16.38408,-7.99947 -15.96201,-7.56091 0.42205,0.43855 8.00083,4.56199 16.84172,9.1632 18.34421,9.54717 17.82744,9.65303 15.11318,-3.09587 z m -162.8629,7.64434 c 0,-1.69022 0.70979,-7.48409 1.57732,-12.87528 0.86754,-5.39119 1.40982,-10.3047 1.20508,-10.91892 -0.20474,-0.61421 -1.1885,3.91653 -2.18614,10.06833 -0.99763,6.1518 -2.05665,12.44821 -2.35337,13.99204 -0.33028,1.71845 -0.0942,2.80695 0.60881,2.80695 0.63156,0 1.1483,-1.3829 1.1483,-3.07312 z m 13.28963,-3.57174 c 5.0413,-2.5319 9.166,-4.8331 9.166,-5.11379 0,-0.45685 -18.26999,8.36639 -19.30844,9.32474 -1.38217,1.27556 2.08135,-0.16243 10.14244,-4.21095 z m 28.55951,-15.3298 c 0,-0.2807 -2.75592,0.88083 -6.12427,2.58116 -3.36834,1.70033 -6.12426,3.32118 -6.12426,3.60187 0,0.2807 2.75592,-0.88083 6.12426,-2.58116 3.36835,-1.70033 6.12427,-3.32118 6.12427,-3.60187 z m 85.73969,3.10291 c 0,-0.27443 -3.67456,-2.34649 -8.16569,-4.60459 -4.49112,-2.2581 -8.16568,-3.87641 -8.16568,-3.59623 0,0.39273 14.91437,8.41644 16.07619,8.64876 0.14035,0.0281 0.25518,-0.17351 0.25518,-0.44794 z m 33.37008,-3.30928 c -0.25879,-0.99312 -0.48755,-0.42771 -0.50835,1.25647 -0.0208,1.68417 0.19093,2.49671 0.47053,1.80566 0.2796,-0.69105 0.29661,-2.06901 0.0379,-3.06213 z m -1.02071,-6.12426 c -0.25879,-0.99312 -0.48755,-0.42771 -0.50835,1.25646 -0.0208,1.68417 0.19093,2.49672 0.47053,1.80567 0.2796,-0.69105 0.29661,-2.06901 0.0379,-3.06213 z m -98.69556,-3.87648 c 0,-0.28069 -2.75592,0.88083 -6.12427,2.58116 -3.36834,1.70034 -6.12426,3.32118 -6.12426,3.60188 0,0.28069 2.75592,-0.88083 6.12426,-2.58116 3.36835,-1.70033 6.12427,-3.32118 6.12427,-3.60188 z m -57.47317,-0.20637 c -0.25879,-0.99312 -0.48755,-0.4277 -0.50835,1.25647 -0.0208,1.68417 0.19093,2.49672 0.47054,1.80567 0.27959,-0.69106 0.2966,-2.06901 0.0379,-3.06214 z m 154.90464,-3.80069 c -0.39044,-2.60364 -0.91868,-4.52512 -1.17386,-4.26994 -0.25517,0.25518 -0.1445,2.59422 0.24593,5.19787 0.39045,2.60363 0.91868,4.52511 1.17386,4.26993 0.25518,-0.25517 0.1445,-2.59421 -0.24593,-5.19786 z m -58.64447,3.03044 c 0,-0.27263 -2.75592,-1.88686 -6.12426,-3.58719 -3.36835,-1.70033 -6.12427,-2.86261 -6.12427,-2.58284 0,0.27978 2.64109,1.87193 5.86909,3.53809 6.56871,3.39052 6.37944,3.31243 6.37944,2.63194 z m -95.23946,-5.35401 c -0.25879,-0.99312 -0.48755,-0.42771 -0.50835,1.25647 -0.0208,1.68417 0.19093,2.49671 0.47054,1.80566 0.27959,-0.69105 0.29661,-2.06901 0.0379,-3.06213 z m 75.84596,-3.87647 c 0,-0.2807 -2.75592,0.88083 -6.12426,2.58116 -3.36835,1.70033 -6.12427,3.32118 -6.12427,3.60187 0,0.2807 2.75592,-0.88083 6.12427,-2.58116 3.36834,-1.70033 6.12426,-3.32118 6.12426,-3.60187 z m -74.82525,-2.24779 c -0.25879,-0.99312 -0.48755,-0.42771 -0.50835,1.25646 -0.0208,1.68417 0.19093,2.49672 0.47054,1.80567 0.27959,-0.69105 0.29661,-2.06901 0.0379,-3.06213 z m 151.06518,-1.02071 c -0.25879,-0.99312 -0.48755,-0.42771 -0.50836,1.25646 -0.0208,1.68417 0.19094,2.49672 0.47054,1.80567 0.27959,-0.69105 0.29661,-2.06901 0.0379,-3.06213 z m -150.04446,-5.10356 c -0.2588,-0.99312 -0.48756,-0.42771 -0.50836,1.25647 -0.0208,1.68417 0.19093,2.49672 0.47054,1.80567 0.27959,-0.69106 0.29661,-2.06902 0.0379,-3.06214 z m 149.02375,-1.02071 c -0.25879,-0.99312 -0.48755,-0.42771 -0.50836,1.25647 -0.0208,1.68417 0.19094,2.49672 0.47054,1.80566 0.27959,-0.69105 0.29661,-2.06901 0.0379,-3.06213 z m -148.03439,-4.61262 c -0.28316,-0.70174 -0.51484,-0.12759 -0.51484,1.27589 0,1.40348 0.23168,1.97763 0.51484,1.27589 0.28316,-0.70174 0.28316,-1.85004 0,-2.55178 z m 146.7703,-3.27092 c -0.39044,-2.60364 -0.91868,-4.52511 -1.17386,-4.26994 -0.25518,0.25518 -0.1445,2.59422 0.24593,5.19787 0.39044,2.60364 0.91868,4.52512 1.17386,4.26994 0.25518,-0.25518 0.1445,-2.59422 -0.24593,-5.19787 z m -145.71824,-2.32356 c -0.25879,-0.99312 -0.48756,-0.42771 -0.50836,1.25646 -0.0208,1.68417 0.19094,2.49672 0.47054,1.80567 0.27959,-0.69105 0.29661,-2.06901 0.0379,-3.06213 z m 1.02071,-6.12427 c -0.25879,-0.99312 -0.48756,-0.42771 -0.50836,1.25647 -0.0208,1.68417 0.19094,2.49672 0.47054,1.80566 0.27959,-0.69105 0.29661,-2.06901 0.0379,-3.06213 z m 142.89949,-1.02071 c -0.25879,-0.99312 -0.48756,-0.42771 -0.50836,1.25647 -0.0208,1.68417 0.19094,2.49672 0.47054,1.80566 0.27959,-0.69105 0.29661,-2.06901 0.0379,-3.06213 z m -141.87878,-5.10355 c -0.25879,-0.99312 -0.48755,-0.42771 -0.50836,1.25646 -0.0208,1.68418 0.19094,2.49672 0.47054,1.80567 0.27959,-0.69105 0.29661,-2.06901 0.0379,-3.06213 z m 140.85807,-1.02071 c -0.25879,-0.99312 -0.48756,-0.42771 -0.50836,1.25646 -0.0208,1.68417 0.19094,2.49672 0.47054,1.80567 0.27959,-0.69105 0.29661,-2.06901 0.0379,-3.06213 z m -139.86871,-4.61262 c -0.28315,-0.70174 -0.51483,-0.12759 -0.51483,1.27588 0,1.40348 0.23168,1.97763 0.51483,1.27589 0.28316,-0.70174 0.28316,-1.85004 0,-2.55177 z m 138.81665,-1.02071 c -0.28316,-0.70174 -0.51484,-0.12759 -0.51484,1.27588 0,1.40348 0.23168,1.97763 0.51484,1.27589 0.28315,-0.70174 0.28315,-1.85004 0,-2.55177 z m -137.79594,-5.10356 c -0.28315,-0.70174 -0.51483,-0.12759 -0.51483,1.27589 0,1.40348 0.23168,1.97763 0.51483,1.27589 0.28316,-0.70174 0.28316,-1.85004 0,-2.55178 z m 136.80657,-0.49093 c -0.25879,-0.99312 -0.48755,-0.42771 -0.50835,1.25647 -0.0208,1.68417 0.19093,2.49671 0.47054,1.80566 0.27959,-0.69105 0.29661,-2.06901 0.0379,-3.06213 z m -135.76459,-4.54883 c -0.32584,-0.81425 -0.5677,-0.57239 -0.61668,0.61669 -0.0443,1.07599 0.19692,1.67885 0.5361,1.33968 0.33917,-0.33918 0.37543,-1.21955 0.0805,-1.95637 z m 134.7338,0 c -0.32583,-0.81425 -0.5677,-0.57239 -0.61667,0.61669 -0.0443,1.07599 0.19692,1.67885 0.53609,1.33968 0.33918,-0.33918 0.37543,-1.21955 0.0805,-1.95637 z m 62.45132,-62.23327 c 1.89213,-2.21053 3.2129,-4.24649 2.93504,-4.52435 -0.27786,-0.27785 -2.28456,-0.71938 -4.45934,-0.98116 -4.2551,-0.51221 -3.75499,-0.0251 1.07784,1.04987 2.91629,0.64864 2.19379,1.46653 -29.09025,32.93111 l -32.0808,32.26596 29.08863,-28.36114 c 15.99875,-15.59863 30.63675,-30.16976 32.52888,-32.38029 z m -233.96987,24.80617 c -29.25849,-29.27249 -29.61605,-29.74842 -22.34978,-29.74842 1.45114,0 2.36161,-0.2768 2.0233,-0.61512 -0.33832,-0.33832 -3.00114,-0.28697 -5.91737,0.11412 l -5.30225,0.72925 29.47878,28.92139 c 16.21332,15.90677 29.70535,28.94603 29.98228,28.97613 0.27694,0.0301 -12.28479,-12.7397 -27.91496,-28.37735 z M 254.18087,355.3078 c -0.69105,-0.27959 -2.06901,-0.29661 -3.06213,-0.0379 -0.99313,0.25879 -0.42771,0.48755 1.25646,0.50836 1.68417,0.0208 2.49672,-0.19094 1.80567,-0.47054 z m 241.35738,0.0529 c -0.33917,-0.33917 -1.21955,-0.37543 -1.95637,-0.0805 -0.81425,0.32583 -0.57239,0.5677 0.61669,0.61667 1.07599,0.0443 1.67885,-0.19693 1.33968,-0.5361 z m -234.21241,-1.07355 c -0.69105,-0.27959 -2.06901,-0.29661 -3.06213,-0.0379 -0.99312,0.25879 -0.42771,0.48755 1.25646,0.50836 1.68418,0.0208 2.49672,-0.19094 1.80567,-0.47054 z m 226.57834,-0.006 c -0.70174,-0.28315 -1.85004,-0.28315 -2.55178,0 -0.70174,0.28316 -0.12759,0.51484 1.27589,0.51484 1.40348,0 1.97763,-0.23168 1.27589,-0.51484 z m -220.4735,-1.02071 c -0.70174,-0.28315 -1.85004,-0.28315 -2.55177,0 -0.70174,0.28316 -0.12759,0.51484 1.27588,0.51484 1.40348,0 1.97763,-0.23168 1.27589,-0.51484 z m 214.34924,0 c -0.70174,-0.28315 -1.85004,-0.28315 -2.55178,0 -0.70174,0.28316 -0.12759,0.51484 1.27589,0.51484 1.40347,0 1.97762,-0.23168 1.27589,-0.51484 z m -207.20426,-1.02071 c -0.70174,-0.28315 -1.85004,-0.28315 -2.55178,0 -0.70174,0.28316 -0.12759,0.51484 1.27589,0.51484 1.40348,0 1.97762,-0.23168 1.27589,-0.51484 z m 199.52766,0.0593 c -0.33917,-0.33918 -1.21954,-0.37543 -1.95636,-0.0805 -0.81425,0.32583 -0.5724,0.5677 0.61668,0.61668 1.07599,0.0443 1.67886,-0.19693 1.33968,-0.5361 z m -192.38269,-1.08039 c -0.70174,-0.28316 -1.85004,-0.28316 -2.55178,0 -0.70173,0.28315 -0.12758,0.51483 1.27589,0.51483 1.40348,0 1.97763,-0.23168 1.27589,-0.51483 z m 7.14498,-1.02072 c -0.70174,-0.28315 -1.85004,-0.28315 -2.55178,0 -0.70174,0.28316 -0.12759,0.51484 1.27589,0.51484 1.40347,0 1.97762,-0.23168 1.27589,-0.51484 z m 6.12426,-1.02071 c -0.70174,-0.28315 -1.85004,-0.28315 -2.55178,0 -0.70174,0.28316 -0.12759,0.51484 1.27589,0.51484 1.40348,0 1.97763,-0.23168 1.27589,-0.51484 z m 158.21015,0 c -0.70174,-0.28315 -1.85004,-0.28315 -2.55178,0 -0.70174,0.28316 -0.12759,0.51484 1.27589,0.51484 1.40348,0 1.97763,-0.23168 1.27589,-0.51484 z m -150.57608,-0.96139 c -0.33918,-0.33918 -1.21955,-0.37543 -1.95637,-0.0805 -0.81425,0.32583 -0.57239,0.5677 0.61668,0.61668 1.076,0.0443 1.67886,-0.19693 1.33969,-0.5361 z m 143.9202,0 c -0.33917,-0.33918 -1.21955,-0.37543 -1.95637,-0.0805 -0.81425,0.32583 -0.57239,0.5677 0.61668,0.61668 1.076,0.0443 1.67886,-0.19693 1.33969,-0.5361 z m -136.77523,-1.02071 c -0.33918,-0.33918 -1.21954,-0.37543 -1.95636,-0.0805 -0.81426,0.32583 -0.5724,0.5677 0.61668,0.61667 1.07599,0.0443 1.67885,-0.19692 1.33968,-0.53609 z m 129.63025,0 c -0.33917,-0.33918 -1.21954,-0.37543 -1.95636,-0.0805 -0.81425,0.32583 -0.5724,0.5677 0.61668,0.61667 1.07599,0.0443 1.67885,-0.19692 1.33968,-0.53609 z M 316.91389,346.1744 c -0.33919,-0.33918 -1.21955,-0.37543 -1.95637,-0.0805 -0.81425,0.32583 -0.57239,0.5677 0.61668,0.61667 1.076,0.0443 1.67886,-0.19692 1.33969,-0.53609 z m 115.3403,0 c -0.33917,-0.33918 -1.21955,-0.37543 -1.95637,-0.0805 -0.81425,0.32583 -0.57239,0.5677 0.61669,0.61667 1.07599,0.0443 1.67885,-0.19692 1.33968,-0.53609 z m -108.19533,-1.02072 c -0.33918,-0.33917 -1.21954,-0.37542 -1.95636,-0.0805 -0.81426,0.32583 -0.5724,0.5677 0.61668,0.61667 1.07599,0.0443 1.67885,-0.19692 1.33968,-0.53609 z m 31.97323,-50.52819 c 4.52785,-9.0424 8.07324,-16.59995 7.87863,-16.79456 -0.19461,-0.19461 -4.12438,7.20372 -8.73284,16.44073 -4.60846,9.237 -8.15385,16.79455 -7.87863,16.79455 0.2752,0 4.20498,-7.39833 8.73284,-16.44072 z m 39.54051,9.83888 c -1.79053,-3.631 -3.42393,-6.43339 -3.62979,-6.22755 -0.45637,0.45637 5.71517,12.82939 6.39918,12.82939 0.26737,0 -0.97886,-2.97082 -2.76939,-6.60184 z"
       id="path25"
       inkscape:connector-curvature="0"
       transform="matrix(0.75146656,0,0,0.75146656,1,-39.4996)" />
    <path
       style="fill:#00abe8;fill-opacity:1;stroke-width:1.02071059"
       d="M 105.90322,410.48603 V 223.0863 l 4.20409,-8.08078 c 5.06344,-9.73258 11.67678,-16.0925 21.79524,-20.96004 l 7.11618,-3.42328 h 236.36403 c 258.86362,0 242.47655,-0.37923 253.12119,5.85773 6.73295,3.94501 13.41455,11.29978 17.13961,18.86646 l 3.27772,6.658 v 172.14514 172.14515 l -3.66587,7.27944 c -4.44127,8.81921 -11.92821,16.50466 -20.46371,21.00631 l -6.26713,3.30531 H 362.21389 105.90322 Z m 185.76934,101.80248 c 0,-1.60581 0.21815,-5.16554 0.48477,-7.91051 l 0.48475,-4.99083 -0.95751,4.5932 c -1.97603,9.47915 -2.14407,11.22781 -1.07897,11.22781 0.58683,0 1.06696,-1.31385 1.06696,-2.91967 z m 164.12426,-0.79957 c -0.29746,-1.4033 -0.55413,-1.14663 -0.98969,0.98968 -0.37976,1.86261 -0.2375,2.53377 0.40161,1.89466 0.54432,-0.54432 0.80896,-1.84228 0.58808,-2.88434 z M 303.9502,509.06922 c 3.35233,-1.69225 6.09515,-3.30648 6.09515,-3.58717 0,-0.45716 -12.14432,5.32257 -13.18418,6.27462 -1.26288,1.15623 1.69935,0.0333 7.08903,-2.68745 z m 142.87038,1.55507 c 0,-0.27558 -4.5932,-2.80602 -10.20711,-5.62321 -5.61391,-2.8172 -10.20711,-4.89279 -10.20711,-4.61244 0,0.39036 18.96005,10.43941 20.15904,10.68453 0.14035,0.0287 0.25518,-0.1733 0.25518,-0.44888 z m 7.85231,-5.34861 c -0.25879,-0.99312 -0.48755,-0.42771 -0.50835,1.25646 -0.0208,1.68418 0.19093,2.49672 0.47054,1.80567 0.27959,-0.69105 0.2966,-2.06901 0.0379,-3.06213 z M 293.40061,495.06857 c -0.25879,-0.99312 -0.48755,-0.42771 -0.50835,1.25647 -0.0208,1.68417 0.19093,2.49672 0.47053,1.80566 0.2796,-0.69105 0.29661,-2.06901 0.0379,-3.06213 z m 38.07966,-0.83738 c 0,-0.28069 -1.37796,0.20221 -3.06213,1.07314 -1.68417,0.87092 -3.06213,1.81315 -3.06213,2.09384 0,0.2807 1.37796,-0.20221 3.06213,-1.07313 1.68417,-0.87092 3.06213,-1.81315 3.06213,-2.09385 z m 121.14112,-0.64931 c -0.32583,-0.81425 -0.5677,-0.5724 -0.61668,0.61668 -0.0443,1.07599 0.19693,1.67885 0.5361,1.33968 0.33917,-0.33917 0.37543,-1.21954 0.0805,-1.95636 z m -39.48426,-0.29276 c 0,-0.26629 -1.37796,-1.19672 -3.06214,-2.06764 -3.83877,-1.98511 -4.07104,-1.12289 -0.25517,0.94725 3.20763,1.74017 3.31731,1.77721 3.31731,1.12039 z m -118.74715,-3.85388 c -0.28316,-0.70174 -0.51484,-0.12759 -0.51484,1.27589 0,1.40348 0.23168,1.97762 0.51484,1.27589 0.28315,-0.70174 0.28315,-1.85004 0,-2.55178 z m 157.2107,-1.97763 c -0.32583,-0.81425 -0.5677,-0.57239 -0.61668,0.61669 -0.0443,1.07599 0.19693,1.67885 0.5361,1.33968 0.33917,-0.33917 0.37543,-1.21955 0.0805,-1.95637 z m -100.7269,-3.42259 c 0,-0.2807 -1.83728,0.42695 -4.08285,1.57255 -2.24556,1.14561 -4.08284,2.31258 -4.08284,2.59327 0,0.2807 1.83728,-0.42695 4.08284,-1.57255 2.24557,-1.14561 4.08285,-2.31258 4.08285,-2.59327 z m -55.44183,-0.66025 c -0.32583,-0.81425 -0.5677,-0.57239 -0.61667,0.61668 -0.0443,1.076 0.19691,1.67886 0.53609,1.33969 0.33918,-0.33918 0.37543,-1.21955 0.0805,-1.95637 z m 155.14802,-2.04142 c -0.32584,-0.81425 -0.5677,-0.5724 -0.61668,0.61668 -0.0443,1.07599 0.19693,1.67886 0.5361,1.33968 0.33917,-0.33917 0.37543,-1.21954 0.0805,-1.95636 z m -60.91919,-0.29823 c 0,-0.26929 -1.83728,-1.42691 -4.08284,-2.57252 -2.24557,-1.1456 -4.08284,-1.85489 -4.08284,-1.57619 0,0.27869 1.72244,1.41602 3.82766,2.5274 4.33087,2.28635 4.33802,2.28903 4.33802,1.62131 z m -93.20812,-3.78461 c -0.32583,-0.81426 -0.5677,-0.5724 -0.61667,0.61668 -0.0443,1.07599 0.19691,1.67885 0.53609,1.33968 0.33918,-0.33917 0.37543,-1.21954 0.0805,-1.95636 z m 153.1066,-1.02071 c -0.32584,-0.81426 -0.5677,-0.5724 -0.61668,0.61668 -0.0443,1.07599 0.19693,1.67885 0.5361,1.33968 0.33917,-0.33917 0.37543,-1.21954 0.0805,-1.95636 z m -79.29198,-2.41282 c 0,-0.2807 -1.37796,0.20221 -3.06213,1.07313 -1.68418,0.87092 -3.06214,1.81315 -3.06214,2.09385 0,0.28069 1.37796,-0.20221 3.06214,-1.07314 1.68417,-0.87092 3.06213,-1.81315 3.06213,-2.09384 z m -72.79391,-2.69074 c -0.32583,-0.81425 -0.5677,-0.57239 -0.61667,0.61669 -0.0443,1.07599 0.19691,1.67885 0.5361,1.33968 0.33917,-0.33917 0.37542,-1.21955 0.0805,-1.95637 z m 151.06517,-1.02071 c -0.32583,-0.81425 -0.56769,-0.57239 -0.61667,0.61668 -0.0443,1.076 0.19693,1.67886 0.5361,1.33969 0.33917,-0.33917 0.37543,-1.21955 0.0805,-1.95637 z m -150.04446,-5.10355 c -0.32583,-0.81425 -0.5677,-0.5724 -0.61667,0.61668 -0.0443,1.07599 0.19691,1.67886 0.5361,1.33968 0.33917,-0.33917 0.37542,-1.21954 0.0805,-1.95636 z m 149.02375,-1.02071 c -0.32583,-0.81425 -0.56769,-0.5724 -0.61667,0.61668 -0.0443,1.07599 0.19693,1.67886 0.5361,1.33968 0.33917,-0.33917 0.37543,-1.21954 0.0805,-1.95636 z m -1.02071,-6.12427 c -0.32583,-0.81425 -0.5677,-0.57239 -0.61667,0.61669 -0.0443,1.07599 0.19693,1.67885 0.5361,1.33968 0.33917,-0.33917 0.37543,-1.21955 0.0805,-1.95637 z M 300.5355,453.77416 c -0.32583,-0.81425 -0.5677,-0.57239 -0.61667,0.61668 -0.0443,1.076 0.19692,1.67886 0.5361,1.33969 0.33917,-0.33917 0.37542,-1.21955 0.0805,-1.95637 z m 144.94091,-1.02071 c -0.32583,-0.81425 -0.5677,-0.57239 -0.61667,0.61668 -0.0443,1.076 0.19693,1.67886 0.5361,1.33969 0.33917,-0.33918 0.37543,-1.21955 0.0805,-1.95637 z m -143.9202,-5.10355 c -0.32583,-0.81425 -0.5677,-0.5724 -0.61667,0.61668 -0.0443,1.07599 0.19692,1.67886 0.5361,1.33968 0.33917,-0.33918 0.37543,-1.21954 0.0805,-1.95636 z m 142.89949,-1.02071 c -0.32583,-0.81425 -0.5677,-0.5724 -0.61667,0.61668 -0.0443,1.07599 0.19693,1.67885 0.5361,1.33968 0.33917,-0.33918 0.37542,-1.21954 0.0805,-1.95636 z m -141.87878,-5.10356 c -0.32583,-0.81425 -0.5677,-0.57239 -0.61667,0.61669 -0.0443,1.07599 0.19692,1.67885 0.5361,1.33968 0.33917,-0.33918 0.37543,-1.21955 0.0805,-1.95637 z m 140.85807,-1.02071 c -0.32583,-0.81425 -0.5677,-0.57239 -0.61667,0.61669 -0.0443,1.07599 0.19692,1.67885 0.5361,1.33968 0.33917,-0.33918 0.37542,-1.21955 0.0805,-1.95637 z m -2.04142,-11.22781 c -0.32583,-0.81425 -0.5677,-0.5724 -0.61667,0.61668 -0.0443,1.07599 0.19692,1.67885 0.5361,1.33968 0.33917,-0.33918 0.37542,-1.21954 0.0805,-1.95636 z M 265.28153,383.1737 c -25.26733,-25.28314 -25.92498,-26.17567 -19.28735,-26.17567 1.17043,0 1.86395,-0.26411 1.54114,-0.58692 -0.32281,-0.32281 -2.74101,-0.2639 -5.37376,0.1309 l -4.78683,0.71783 25.87303,25.33287 c 14.23016,13.93308 26.09917,25.35717 26.37557,25.38686 0.2764,0.0297 -10.67741,-11.13294 -24.3418,-24.80587 z m 217.77427,-1.67861 c 12.34103,-12.3506 22.20857,-22.45563 21.92788,-22.45563 -0.2807,0 -10.60756,10.10503 -22.94859,22.45563 -12.34102,12.3506 -22.20857,22.45563 -21.92787,22.45563 0.28069,0 10.60756,-10.10503 22.94858,-22.45563 z m 22.68955,-24.09303 c -0.33917,-0.33917 -1.21954,-0.37543 -1.95636,-0.0805 -0.81425,0.32583 -0.5724,0.5677 0.61668,0.61667 1.07599,0.0443 1.67886,-0.19692 1.33968,-0.5361 z m -4.08284,-1.02071 c -0.33917,-0.33917 -1.21954,-0.37543 -1.95636,-0.0805 -0.81426,0.32583 -0.5724,0.5677 0.61668,0.61667 1.07599,0.0443 1.67885,-0.19693 1.33968,-0.5361 z m -248.03268,-1.02071 c -0.33919,-0.33917 -1.21955,-0.37543 -1.95637,-0.0805 -0.81425,0.32583 -0.57239,0.5677 0.61668,0.61667 1.076,0.0443 1.67886,-0.19693 1.33969,-0.5361 z m 7.14497,-1.02071 c -0.33918,-0.33917 -1.21954,-0.37543 -1.95636,-0.0805 -0.81426,0.32583 -0.5724,0.5677 0.61668,0.61667 1.07599,0.0443 1.67885,-0.19693 1.33968,-0.5361 z m 92.96398,-56.05977 c -0.31427,-0.31426 -0.88501,0.25223 -1.26832,1.25888 -0.55392,1.45471 -0.43668,1.57195 0.5714,0.57139 0.69757,-0.69239 1.01119,-1.516 0.69692,-1.83027 z"
       id="path27"
       inkscape:connector-curvature="0"
       transform="matrix(0.75146656,0,0,0.75146656,1,-39.4996)" />
    <path
       style="fill:#00abe8;fill-opacity:1;stroke-width:1.02071059"
       d="M 105.90322,410.48603 V 223.0863 l 4.16286,-8.00153 c 5.0358,-9.67944 11.29622,-15.82461 21.20498,-20.81458 l 7.24394,-3.64799 236.57518,0.016 c 193.16876,0.013 237.6328,0.26488 242.33958,1.37273 11.75938,2.76784 22.87729,11.98534 28.39083,23.53792 l 3.10069,6.49693 V 394.1662 566.28667 l -3.30558,6.86832 c -4.08032,8.47806 -12.31254,16.95038 -20.824,21.43134 l -6.26713,3.29941 H 362.21389 105.90322 Z m 185.76934,99.38825 c 0,-5.155 -0.51904,-4.76162 -1.4131,1.071 -0.44586,2.90867 -0.32029,4.19302 0.36831,3.76743 0.57464,-0.35515 1.04479,-2.53244 1.04479,-4.83843 z m 164.01096,2.08039 c -0.32583,-0.81425 -0.5677,-0.5724 -0.61667,0.61668 -0.0443,1.07599 0.19692,1.67886 0.53609,1.33968 0.33918,-0.33917 0.37543,-1.21954 0.0805,-1.95636 z m -10.90436,-2.34756 c 0,-0.27364 -3.21524,-2.11669 -7.14498,-4.09568 -3.92974,-1.97898 -7.14497,-3.36905 -7.14497,-3.08904 0,0.39439 12.89842,7.40849 14.03477,7.63204 0.14035,0.0276 0.25518,-0.17368 0.25518,-0.44732 z m 9.88365,-3.77671 c -0.32583,-0.81425 -0.5677,-0.57239 -0.61667,0.61669 -0.0443,1.07599 0.19692,1.67885 0.53609,1.33968 0.33918,-0.33917 0.37543,-1.21955 0.0805,-1.95637 z m -162.31425,-4.14663 c -0.28316,-0.70174 -0.51484,-0.12759 -0.51484,1.27589 0,1.40347 0.23168,1.97762 0.51484,1.27588 0.28315,-0.70173 0.28315,-1.85003 0,-2.55177 z m 1.04197,-6.06047 c -0.32583,-0.81425 -0.5677,-0.5724 -0.61667,0.61668 -0.0443,1.07599 0.19691,1.67886 0.53609,1.33968 0.33917,-0.33917 0.37543,-1.21954 0.0805,-1.95636 z m 55.44183,-10.59791 c 0,-0.28069 -0.91864,-0.0187 -2.04143,0.58218 -1.12278,0.6009 -2.04142,1.3222 -2.04142,1.6029 0,0.28069 0.91864,0.0187 2.04142,-0.58218 1.12279,-0.6009 2.04143,-1.3222 2.04143,-1.6029 z M 262.19723,380.08941 c -14.16514,-14.17665 -21.31287,-22.01435 -20.4053,-22.37505 0.81063,-0.32217 0.43303,-0.58898 -0.89972,-0.63574 -1.26313,-0.0443 -2.2966,0.21951 -2.2966,0.5863 0,0.72504 44.0804,44.10923 44.90236,44.19317 0.2758,0.0282 -9.30953,-9.76774 -21.30074,-21.76868 z m 226.98284,-4.71858 c 7.84442,-7.85948 14.03294,-14.28995 13.75225,-14.28995 -0.2807,0 -6.92854,6.43047 -14.77296,14.28995 -7.84443,7.85947 -14.03295,14.28994 -13.75225,14.28994 0.28069,0 6.92853,-6.43047 14.77296,-14.28994 z m -242.1636,-19.04879 c -0.70174,-0.28316 -1.85004,-0.28316 -2.55178,0 -0.70174,0.28315 -0.12759,0.51483 1.27589,0.51483 1.40348,0 1.97763,-0.23168 1.27589,-0.51483 z"
       id="path29"
       inkscape:connector-curvature="0"
       transform="matrix(0.75146656,0,0,0.75146656,1,-39.4996)" />
    <path
       style="fill:#00abe8;fill-opacity:1;stroke-width:1.02071059"
       d="M 105.90322,410.55987 V 223.23398 l 3.66587,-7.27944 c 4.75487,-9.4419 12.14133,-16.77108 21.73386,-21.5653 l 7.53729,-3.76704 h 235.50771 c 154.87533,0 237.3901,0.35436 241.00574,1.03499 12.51923,2.35669 23.24606,10.7533 29.89014,23.397 l 3.67745,6.99821 v 172.12114 172.12114 l -3.57582,7.10064 c -4.36211,8.66198 -12.18182,16.70613 -20.5824,21.17312 l -6.23849,3.3173 H 362.21389 105.90322 Z m 185.47054,98.28077 c -0.24415,-1.26967 -0.45318,-0.47122 -0.46451,1.77435 -0.0113,2.24556 0.18843,3.28439 0.44391,2.3085 0.25547,-0.9759 0.26474,-2.81317 0.0206,-4.08285 z M 254.11161,372.0041 c -7.45024,-7.4656 -13.22363,-13.89607 -12.82976,-14.28995 0.39387,-0.39386 -0.15809,-0.71612 -1.22657,-0.71612 -1.3231,0 2.60603,4.55745 12.31992,14.28995 7.84443,7.85948 14.49203,14.28995 14.77245,14.28995 0.28042,0 -5.5858,-6.10822 -13.03604,-13.57383 z"
       id="path31"
       inkscape:connector-curvature="0"
       transform="matrix(0.75146656,0,0,0.75146656,1,-39.4996)" />
    <path
       style="fill:#00abe8;fill-opacity:1;stroke-width:1.02071059"
       d="M 105.90322,410.56387 V 223.24199 l 3.31731,-6.80817 c 4.75874,-9.76643 11.41189,-16.58491 21.10177,-21.62614 l 8.09355,-4.21073 239.70853,0.26781 239.70853,0.2678 7.12332,3.4998 c 8.56102,4.20617 16.03674,11.50532 20.64774,20.16005 l 3.31731,6.22651 v 172.72165 172.72165 l -3.23591,6.78054 c -4.05359,8.49397 -12.58734,17.20233 -21.03746,21.46794 l -6.28974,3.17504 H 362.1307 105.90322 Z m 185.45597,98.79465 c -0.25879,-0.99312 -0.48755,-0.42771 -0.50835,1.25647 -0.0208,1.68417 0.19093,2.49671 0.47053,1.80566 0.2796,-0.69105 0.29661,-2.06901 0.0379,-3.06213 z M 252.57961,370.47221 c -6.60673,-6.62397 -11.69033,-12.36547 -11.29693,-12.75888 0.39341,-0.39341 0.17942,-0.7153 -0.47553,-0.7153 -0.65496,0 -1.19083,0.33759 -1.19083,0.75021 0,0.82783 23.64741,24.76756 24.46514,24.76756 0.2807,0 -4.89514,-5.41962 -11.50185,-12.04359 z"
       id="path33"
       inkscape:connector-curvature="0"
       transform="matrix(0.75146656,0,0,0.75146656,1,-39.4996)" />
    <path
       style="fill:#00abe8;fill-opacity:1;stroke-width:1.02071059"
       d="M 105.90322,410.4761 V 223.06644 l 3.0891,-6.47261 c 4.50809,-9.44586 11.6664,-16.7586 21.322,-21.78199 l 8.08556,-4.20658 239.69486,0.26365 239.69487,0.26365 6.95619,3.29475 c 8.39385,3.97568 16.17278,11.57073 20.85817,20.3651 l 3.31731,6.22651 v 172.95973 172.95972 l -3.25636,6.54247 c -4.12295,8.28354 -12.86621,17.11535 -21.01701,21.22986 l -6.28974,3.17504 H 362.1307 105.90322 Z m 185.44589,99.43715 c -0.32583,-0.81425 -0.5677,-0.5724 -0.61668,0.61668 -0.0443,1.07599 0.19692,1.67885 0.5361,1.33968 0.33917,-0.33917 0.37543,-1.21954 0.0805,-1.95636 z M 260.03053,378.15762 c 0,-0.15143 -4.47837,-4.6298 -9.95193,-9.95193 l -9.95193,-9.67659 9.67659,9.95193 c 8.98752,9.24325 10.22727,10.41624 10.22727,9.67659 z"
       id="path35"
       inkscape:connector-curvature="0"
       transform="matrix(0.75146656,0,0,0.75146656,1,-39.4996)" />
    <path
       style="fill:#00abe8;fill-opacity:1;stroke-width:1.02071059"
       d="M 105.90322,409.96269 V 222.03963 l 3.29813,-6.18793 c 5.03887,-9.45389 11.80134,-16.19542 21.09669,-21.03139 l 8.06928,-4.19811 h 239.01252 239.0125 l 7.58872,3.5062 c 9.14469,4.22512 16.87053,11.58972 21.63491,20.62338 l 3.30531,6.26714 v 173.23505 173.23506 l -3.29941,6.26714 c -4.07483,7.74003 -12.6654,16.51419 -20.41665,20.85298 l -5.85362,3.27659 H 362.62741 105.90322 Z m 144.94091,-41.06828 c 0,-0.19369 -1.03347,-1.22716 -2.2966,-2.2966 l -2.29659,-1.94445 1.94444,2.2966 c 1.8273,2.15823 2.64875,2.76127 2.64875,1.94445 z"
       id="path37"
       inkscape:connector-curvature="0"
       transform="matrix(0.75146656,0,0,0.75146656,1,-39.4996)" />
    <path
       style="fill:#00abe8;fill-opacity:1;stroke-width:1.02071059"
       d="M 105.90322,409.96269 V 222.03963 l 3.29439,-6.26714 c 4.48253,-8.52743 13.92771,-17.76722 22.34864,-21.86268 l 6.75987,-3.28761 h 239.26019 239.26018 l 7.42264,3.55721 c 8.9728,4.30009 16.71748,11.75681 21.36684,20.57237 l 3.30531,6.26714 v 173.23505 173.23506 l -3.29941,6.26714 c -4.04025,7.67434 -12.62754,16.5003 -20.30118,20.86543 l -5.73815,3.26414 H 362.74288 105.90322 Z"
       id="path39"
       inkscape:connector-curvature="0"
       transform="matrix(0.75146656,0,0,0.75146656,1,-39.4996)" />
    <path
       style="fill:#00abe8;fill-opacity:1;stroke-width:1.02071059"
       d="M 105.90322,410.04588 V 222.20602 l 3.18815,-6.31568 c 4.00813,-7.94007 13.68655,-17.6236 21.96214,-21.97375 l 6.26714,-3.29439 h 240.00478 240.00479 l 7.27944,3.66587 c 8.97406,4.51926 16.93752,12.28922 21.15196,20.63798 l 3.15966,6.25926 v 173.15186 173.15186 l -3.29941,6.26714 c -4.02137,7.63848 -12.66337,16.58322 -20.19357,20.90099 l -5.59727,3.20943 -256.9639,0.009 -256.96391,0.01 z"
       id="path41"
       inkscape:connector-curvature="0"
       transform="matrix(0.75146656,0,0,0.75146656,1,-39.4996)" />
    <path
       style="fill:#00abe8;fill-opacity:1;stroke-width:1.02071059"
       d="M 105.90322,410.04588 V 222.20602 l 3.18815,-6.31568 c 4.00813,-7.94007 13.68655,-17.6236 21.96214,-21.97375 l 6.26714,-3.29439 H 377.32143 617.3222 l 6.83543,3.31731 c 8.70044,4.22242 17.3996,12.6577 21.56652,20.91232 l 3.19713,6.33348 v 173.15186 173.15186 l -3.29813,6.18793 c -4.46082,8.36935 -11.45597,15.77013 -19.26404,20.38112 l -6.48164,3.82766 H 362.89035 105.90322 Z"
       id="path43"
       inkscape:connector-curvature="0"
       transform="matrix(0.75146656,0,0,0.75146656,1,-39.4996)" />
    <path
       style="fill:#00abe8;fill-opacity:1;stroke-width:1.02071059"
       d="M 105.90322,409.96907 V 222.0524 l 3.7062,-7.05291 c 4.37807,-8.33148 12.45837,-16.25245 21.48361,-21.05998 l 6.22762,-3.31731 H 377.42987 617.5391 l 6.73917,3.31731 c 8.29467,4.08299 17.03975,12.50313 21.39028,20.59547 l 3.25273,6.05035 v 173.36866 173.36865 l -3.00219,5.94733 c -4.04326,8.00964 -11.6986,16.14564 -19.55998,20.78811 l -6.48164,3.82766 H 362.89035 105.90322 Z"
       id="path45"
       inkscape:connector-curvature="0"
       transform="matrix(0.75146656,0,0,0.75146656,1,-39.4996)" />
    <path
       style="fill:#00abe8;fill-opacity:1;stroke-width:1.02071059"
       d="M 105.90322,409.96907 V 222.0524 l 3.7062,-7.05291 c 4.37807,-8.33148 12.45837,-16.25245 21.48361,-21.05998 l 6.22762,-3.31731 H 377.4092 617.49776 l 6.57862,3.13969 c 7.90123,3.77091 17.02522,12.41818 21.5889,20.4609 l 3.256,5.73816 v 173.68084 173.68085 l -2.96856,5.8807 c -3.98942,7.90298 -11.00347,15.4883 -18.98022,20.52607 l -6.58108,4.15633 h -257.2441 -257.2441 z"
       id="path47"
       inkscape:connector-curvature="0"
       transform="matrix(0.75146656,0,0,0.75146656,1,-39.4996)" />
    <path
       style="fill:#00abe8;fill-opacity:1;stroke-width:1.02071059"
       d="M 105.90322,409.69915 V 221.51257 l 3.82767,-6.89275 c 4.53039,-8.15819 12.69803,-16.06515 21.36214,-20.68031 l 6.22762,-3.31731 h 240.32663 240.32663 l 6.54247,3.25637 c 7.78629,3.87546 16.59403,12.35132 21.14076,20.34422 l 3.26414,5.73816 v 173.98083 173.98084 l -3.10457,5.73197 c -4.30994,7.95747 -11.0838,15.17367 -18.84421,20.07482 l -6.58108,4.15633 h -257.2441 -257.2441 z"
       id="path49"
       inkscape:connector-curvature="0"
       transform="matrix(0.75146656,0,0,0.75146656,1,-39.4996)" />
    <path
       style="fill:#00abe8;fill-opacity:1;stroke-width:1.02071059"
       d="m 105.90322,409.48754 v -188.3982 l 4.05112,-6.93647 c 4.81523,-8.24481 13.37146,-16.3821 21.58537,-20.52847 l 5.94733,-3.0022 h 240.51877 240.51876 l 6.26713,3.29941 c 7.63849,4.02138 16.58322,12.66337 20.90099,20.19357 l 3.20943,5.59727 0.009,174.41727 0.009,174.41728 -3.09445,5.40852 c -4.38163,7.65829 -11.29618,15.00354 -18.64224,19.80346 l -6.31504,4.12676 H 363.38599 105.90322 Z"
       id="path51"
       inkscape:connector-curvature="0"
       transform="matrix(0.75146656,0,0,0.75146656,1,-39.4996)" />
    <path
       inkscape:connector-curvature="0"
       style="fill:#083863;stroke-width:1.00195539"
       d="m 290.33442,162.07881 c -2.64579,-2.78669 -6.27396,-4.46184 -10.17611,-4.46184 -3.90607,0 -7.53032,1.67515 -10.18002,4.46184 l -81.71025,87.70631 c -5.29549,5.57729 -4.8767,14.50096 0.70058,19.65555 2.6458,2.51271 6.13698,3.76907 9.48336,3.76907 3.76124,0 7.6634,-1.53816 10.45399,-4.46183 l 57.72594,-61.7729 v 152.26591 c 0,7.6673 6.27396,13.94519 13.94128,13.94519 7.67122,0 13.94518,-6.27789 13.94518,-13.94519 V 206.97501 l 57.30715,61.7729 c 5.2994,5.5773 13.94519,5.99216 19.65946,0.69276 5.57729,-5.29549 5.85518,-14.07826 0.69667,-19.65555 z m 0,0"
       id="path16" />
  </g>
</svg>
