<?xml version="1.0" encoding="UTF-8" standalone="no"?>
<svg
   xmlns:dc="http://purl.org/dc/elements/1.1/"
   xmlns:cc="http://creativecommons.org/ns#"
   xmlns:rdf="http://www.w3.org/1999/02/22-rdf-syntax-ns#"
   xmlns:svg="http://www.w3.org/2000/svg"
   xmlns="http://www.w3.org/2000/svg"
   xmlns:sodipodi="http://sodipodi.sourceforge.net/DTD/sodipodi-0.dtd"
   xmlns:inkscape="http://www.inkscape.org/namespaces/inkscape"
   enable-background="new 0 0 96 96"
   height="20"
   id="magnifying_glass"
   version="1.1"
   viewBox="0 0 20 20"
   width="20"
   xml:space="preserve"
   sodipodi:docname="full_find_str.svg"
   inkscape:version="0.92.4 (5da689c313, 2019-01-14)"><metadata
     id="metadata8"><rdf:RDF><cc:Work
         rdf:about=""><dc:format>image/svg+xml</dc:format><dc:type
           rdf:resource="http://purl.org/dc/dcmitype/StillImage" /><dc:title></dc:title></cc:Work></rdf:RDF></metadata><defs
     id="defs6" /><sodipodi:namedview
     pagecolor="#ffffff"
     bordercolor="#666666"
     borderopacity="1"
     objecttolerance="10"
     gridtolerance="10"
     guidetolerance="10"
     inkscape:pageopacity="0"
     inkscape:pageshadow="2"
     inkscape:window-width="1920"
     inkscape:window-height="1013"
     id="namedview4"
     showgrid="false"
     inkscape:zoom="8.5980048"
     inkscape:cx="47.999999"
     inkscape:cy="21.404955"
     inkscape:window-x="-9"
     inkscape:window-y="-9"
     inkscape:window-maximized="1"
     inkscape:current-layer="magnifying_glass" /><path
     d="m 18.762474,18.007833 -5.552577,-5.816917 c 1.030116,-1.262921 0.501367,-1.946657 0.535768,-3.7156977 0.08046,-4.1374754 -0.937896,-5.6941344 -4.9994949,-5.7713628 -4.061601,-0.077228 -5.559355,1.2378812 -5.6398125,5.3753566 -0.080458,4.1374729 0.9378979,5.4615209 4.9994987,5.5387499 1.7365975,0.03303 2.5302267,-0.434291 4.0412787,0.193962 l 5.436271,5.351689 c 0.15599,0.165363 0.365462,0.250543 0.573243,0.254494 0.208597,0.004 0.420402,-0.07319 0.582923,-0.23251 0.324823,-0.318613 0.335107,-0.847453 0.0229,-1.177764 z M 8.2545398,11.371453 C 5.0951534,11.311379 5.0271377,11.328694 5.0897229,8.1102899 5.1523082,4.8918835 5.6707125,4.8902923 8.8300988,4.9503657 c 3.1593852,0.060073 3.4600132,0.042756 3.3974282,3.2611627 -0.06259,3.2184046 -0.813602,3.2199986 -3.9729872,3.1599246 z"
     id="_x3C_Path_x3E_"
     inkscape:connector-curvature="0"
     style="stroke-width:0.20624346"
     sodipodi:nodetypes="ccssscccccccssscs" /></svg>