<?xml version="1.0" encoding="UTF-8" standalone="no"?>
<svg
   xmlns:dc="http://purl.org/dc/elements/1.1/"
   xmlns:cc="http://creativecommons.org/ns#"
   xmlns:rdf="http://www.w3.org/1999/02/22-rdf-syntax-ns#"
   xmlns:svg="http://www.w3.org/2000/svg"
   xmlns="http://www.w3.org/2000/svg"
   xmlns:sodipodi="http://sodipodi.sourceforge.net/DTD/sodipodi-0.dtd"
   xmlns:inkscape="http://www.inkscape.org/namespaces/inkscape"
   height="480pt"
   viewBox="0 0 480 480.06537"
   width="480pt"
   version="1.1"
   id="svg36"
   sodipodi:docname="group.svg"
   inkscape:version="0.92.4 (5da689c313, 2019-01-14)">
  <metadata
     id="metadata42">
    <rdf:RDF>
      <cc:Work
         rdf:about="">
        <dc:format>image/svg+xml</dc:format>
        <dc:type
           rdf:resource="http://purl.org/dc/dcmitype/StillImage" />
      </cc:Work>
    </rdf:RDF>
  </metadata>
  <defs
     id="defs40" />
  <sodipodi:namedview
     pagecolor="#ffffff"
     bordercolor="#666666"
     borderopacity="1"
     objecttolerance="10"
     gridtolerance="10"
     guidetolerance="10"
     inkscape:pageopacity="0"
     inkscape:pageshadow="2"
     inkscape:window-width="1920"
     inkscape:window-height="1001"
     id="namedview38"
     showgrid="false"
     inkscape:zoom="1.0429825"
     inkscape:cx="320"
     inkscape:cy="320"
     inkscape:window-x="-9"
     inkscape:window-y="-9"
     inkscape:window-maximized="1"
     inkscape:current-layer="svg36" />
  <path
     d="m48.03125 48.066406c0 22.089844 17.910156 40 40 40v-80c-22.089844 0-40 17.90625-40 40zm0 0"
     fill="#006df0"
     id="path2" />
  <path
     d="m128.03125 48.066406c0-22.09375-17.90625-40-40-40v80c22.09375 0 40-17.910156 40-40zm0 0"
     fill="#2488ff"
     id="path4" />
  <path
     d="m352.03125 48.066406c0 22.089844 17.910156 40 40 40v-80c-22.089844 0-40 17.90625-40 40zm0 0"
     fill="#006df0"
     id="path6" />
  <path
     d="m432.03125 48.066406c0-22.09375-17.90625-40-40-40v80c22.09375 0 40-17.910156 40-40zm0 0"
     fill="#2488ff"
     id="path8" />
  <path
     d="m200.03125 312.066406c0 22.089844 17.910156 40 40 40v-80c-22.089844 0-40 17.90625-40 40zm0 0"
     fill="#ab2300"
     id="path10" />
  <path
     d="m280.03125 312.066406c0-22.09375-17.90625-40-40-40v80c22.09375 0 40-17.910156 40-40zm0 0"
     fill="#ed1c24"
     id="path12" />
  <path
     d="m240.03125 360.066406v120h80v-40c0-44.183594-35.816406-80-80-80zm0 0"
     fill="#ed1c24"
     id="path14" />
  <path
     d="m160.03125 440.066406v40h80v-120c-44.179688 0-80 35.816406-80 80zm0 0"
     fill="#ab2300"
     id="path16" />
  <path
     d="m472.03125 176.066406c0-44.183594-35.816406-80-80-80v120h80zm0 0"
     fill="#2488ff"
     id="path18" />
  <path
     d="m312.03125 176.066406v40h80v-120c-44.179688 0-80 35.816406-80 80zm0 0"
     fill="#006df0"
     id="path20" />
  <path
     d="m168.03125 176.066406c0-44.183594-35.816406-80-80-80v120h80zm0 0"
     fill="#2488ff"
     id="path22" />
  <path
     d="m8.03125 176.066406v40h80v-120c-44.179688 0-80 35.816406-80 80zm0 0"
     fill="#006df0"
     id="path24" />
  <path
     d="m88.03125 104.066406c39.746094.046875 71.953125 32.253906 72 72v40h16v-40c-.070312-40.234375-27.402344-75.304687-66.398438-85.199218 19.855469-10.007813 30.242188-32.335938 25.097657-53.96875-5.140625-21.628907-24.464844-36.898438-46.699219-36.898438-22.230469 0-41.554688 15.269531-46.699219 36.898438-5.140625 21.632812 5.246094 43.960937 25.101563 53.96875-39 9.894531-66.328125 44.964843-66.402344 85.199218v40h16v-40c.050781-39.746094 32.257812-71.953125 72-72zm-32-56c0-17.675781 14.328125-32 32-32 17.675781 0 32 14.324219 32 32 0 17.671875-14.324219 32-32 32-17.671875 0-32-14.328125-32-32zm0 0"
     id="path26" />
  <path
     d="m413.632812 90.867188c19.855469-10.007813 30.242188-32.335938 25.097657-53.96875-5.140625-21.628907-24.464844-36.898438-46.699219-36.898438-22.230469 0-41.554688 15.269531-46.699219 36.898438-5.140625 21.632812 5.246094 43.960937 25.101563 53.96875-39 9.894531-66.328125 44.964843-66.402344 85.199218v40h16v-40c0-39.765625 32.238281-72 72-72 39.765625 0 72 32.234375 72 72v40h16v-40c-.070312-40.234375-27.402344-75.304687-66.398438-85.199218zm-53.601562-42.800782c0-17.675781 14.328125-32 32-32 17.675781 0 32 14.324219 32 32 0 17.671875-14.324219 32-32 32-17.671875 0-32-14.328125-32-32zm0 0"
     id="path28" />
  <path
     d="m261.632812 354.867188c19.855469-10.007813 30.242188-32.335938 25.097657-53.96875-5.140625-21.628907-24.464844-36.898438-46.699219-36.898438-22.230469 0-41.554688 15.269531-46.699219 36.898438-5.140625 21.632812 5.246094 43.960937 25.101563 53.96875-39 9.894531-66.328125 44.964843-66.402344 85.199218v40h16v-40c0-39.765625 32.238281-72 72-72 39.765625 0 72 32.234375 72 72v40h16v-40c-.070312-40.234375-27.402344-75.304687-66.398438-85.199218zm-53.601562-42.800782c0-17.675781 14.328125-32 32-32 17.675781 0 32 14.324219 32 32 0 17.671875-14.324219 32-32 32-17.671875 0-32-14.328125-32-32zm0 0"
     id="path30" />
  <path
     d="m168.03125 344.066406h-24c-52.992188-.058594-95.941406-43.003906-96-96v-24h-16v24c.066406 61.828125 50.171875 111.933594 112 112h24zm0 0"
     id="path32" />
  <path
     d="m432.03125 256.066406c-.054688 48.578125-39.421875 87.941406-88 88h-32v16h32c57.410156-.066406 103.933594-46.589844 104-104v-32h-16zm0 0"
     id="path34" />
  <path
     style="fill:#faff00;fill-opacity:1;stroke:#eaf722;stroke-width:0.95878887;stroke-opacity:0.99598038"
     d="m 320,565.54583 v -74.30614 l 5.03364,0.0126 c 2.7685,0.007 8.91674,0.81825 13.66274,1.80294 19.01713,3.94565 35.14016,12.57634 48.44404,25.9322 11.92873,11.97533 19.29586,24.09255 24.2264,39.84687 3.60428,11.51659 4.50639,22.114 4.50936,52.97309 l 0.003,28.04457 H 367.93944 320 Z"
     id="path4565"
     inkscape:connector-curvature="0"
     transform="matrix(0.75010214,0,0,0.75010214,-0.032685,0)" />
  <path
     style="fill:#fbff00;fill-opacity:1;stroke:#eaf522;stroke-width:0.95878887;stroke-opacity:0.99598038"
     d="m 320,416.35025 v -42.31328 l 5.52993,0.4 c 10.881,0.78706 24.75655,9.72726 30.6166,19.72669 9.74445,16.62765 7.48213,36.79512 -5.68988,50.72258 -7.23291,7.64774 -15.32438,11.70192 -26.3818,13.21843 L 320,458.66353 Z"
     id="path4567"
     inkscape:connector-curvature="0"
     transform="matrix(0.75010214,0,0,0.75010214,-0.032685,0)" />
  <path
     style="fill:#ffcc00;fill-opacity:1;stroke:#f5ed49;stroke-width:0.95878887;stroke-opacity:0.99598038"
     d="m 224.40123,606.53405 c 0.48669,-34.76375 0.85717,-38.29161 5.39322,-51.35548 7.89586,-22.74019 25.61748,-43.0289 47.06005,-53.87703 10.65992,-5.39302 28.28226,-10.06185 37.97808,-10.06185 h 4.20863 v 74.30614 74.30613 H 271.488 223.93479 Z"
     id="path4569"
     inkscape:connector-curvature="0"
     transform="matrix(0.75010214,0,0,0.75010214,-0.032685,0)" />
  <path
     style="fill:#ffc100;fill-opacity:1;stroke:#eaf922;stroke-width:0.95878887;stroke-opacity:0.99598038"
     d="m 311.32423,457.33431 c -11.34022,-2.44252 -23.54139,-11.55026 -28.49127,-21.26773 -8.27433,-16.24393 -5.9696,-35.31329 5.81287,-48.09576 7.12896,-7.73401 15.61125,-12.29776 25.36174,-13.64546 l 5.03364,-0.69574 v 42.50562 c 0,33.40817 -0.25651,42.48843 -1.19848,42.42527 -0.65917,-0.0442 -3.59249,-0.59598 -6.5185,-1.2262 z"
     id="path4571"
     inkscape:connector-curvature="0"
     transform="matrix(0.75010214,0,0,0.75010214,-0.032685,0)" />
  <path
     style="fill:#faff00;fill-opacity:1;stroke:#eaf722;stroke-width:0.95878887;stroke-opacity:0.99598036"
     d="m 225.36049,605.57526 c 0.58924,-36.6784 0.99624,-39.94476 6.75758,-54.23265 6.46185,-16.02512 20.3775,-33.465 34.1831,-42.8402 12.48949,-8.48146 30.60822,-15.03253 44.35064,-16.03558 l 7.43061,-0.54236 v 73.48435 73.48435 h -46.62859 -46.6286 z"
     id="path4583"
     inkscape:connector-curvature="0"
     transform="matrix(0.75010214,0,0,0.75010214,-0.032685,0)" />
  <path
     style="fill:#faff00;fill-opacity:1;stroke:#eaf722;stroke-width:0.95878887;stroke-opacity:0.99598036"
     d="m 310.41211,456.30816 c -15.46161,-4.30912 -27.22951,-16.24057 -30.69277,-31.11934 -1.87192,-8.04212 -0.76045,-18.98945 2.66329,-26.23183 6.27654,-13.277 17.47078,-21.56183 32.58373,-24.11515 l 3.11606,-0.52645 v 41.68334 c 0,46.94456 0.8127,42.67363 -7.67031,40.30943 z"
     id="path4585"
     inkscape:connector-curvature="0"
     transform="matrix(0.75010214,0,0,0.75010214,-0.032685,0)" />
  <path
     style="fill:#faff00;fill-opacity:1;stroke:#eaf722;stroke-width:0.95878887;stroke-opacity:0.99598036"
     d="M 320.63919,639.21277 C 320.28764,638.86122 320,605.57579 320,565.24516 v -73.32842 l 8.8688,0.57051 c 21.14435,1.36017 42.27212,11.34808 58.3562,27.58723 12.31104,12.42971 20.37839,26.59855 24.97552,43.86496 2.14683,8.06334 3.44924,35.69948 2.93365,62.24978 l -0.26534,13.66274 h -46.79522 c -25.73737,0 -47.08286,-0.28763 -47.43442,-0.63919 z"
     id="path4587"
     inkscape:connector-curvature="0"
     transform="matrix(0.75010214,0,0,0.75010214,-0.032685,0)" />
  <path
     style="fill:#faff00;fill-opacity:1;stroke:#eaf722;stroke-width:0.95878887;stroke-opacity:0.99598036"
     d="m 320.95879,415.9565 v -41.72558 l 2.15727,0.44242 c 1.1865,0.24333 3.85645,0.71779 5.93322,1.05436 9.72311,1.57575 23.14472,11.69044 27.60806,20.80577 5.82152,11.8891 6.18336,25.3583 0.97994,36.47775 -3.4081,7.28294 -10.2166,15.06231 -16.30557,18.63068 -4.65772,2.7296 -14.55701,6.04018 -18.06137,6.04018 h -2.31155 z"
     id="path4589"
     inkscape:connector-curvature="0"
     transform="matrix(0.75010214,0,0,0.75010214,-0.032685,0)" />
  <path
     style="fill:#faff00;fill-opacity:1;stroke:#eaf722;stroke-width:0.95878887;stroke-opacity:0.99598036"
     d="m 307.56924,454.78816 c -10.9917,-3.99061 -19.15872,-11.30675 -24.59755,-22.03487 -3.51928,-6.9418 -4.38804,-20.90288 -1.79902,-28.91053 4.36513,-13.50105 14.16945,-22.90841 28.21498,-27.07257 9.59186,-2.84376 8.71193,-6.10636 8.56945,31.77396 -0.0689,18.32485 -0.39251,36.55383 -0.71909,40.50883 -0.69597,8.42857 -1.28605,8.77859 -9.66877,5.73518 z"
     id="path4591"
     inkscape:connector-curvature="0"
     transform="matrix(0.75010214,0,0,0.75010214,-0.032685,0)" />
  <path
     style="fill:#faff00;fill-opacity:1;stroke:#eaf722;stroke-width:0.95878887;stroke-opacity:0.99598036"
     d="m 225.62787,638.04533 c -0.2945,-0.47649 -0.13386,-15.90518 0.35697,-34.28596 0.97432,-36.48671 1.63173,-41.23006 7.51175,-54.19816 11.73033,-25.87068 31.68964,-43.74269 58.71406,-52.57386 8.90071,-2.90862 23.81794,-5.24874 25.15879,-3.94676 0.39887,0.3873 0.61459,33.2547 0.4794,73.03868 l -0.24581,72.33451 -45.71986,0.24896 c -26.49356,0.14426 -45.94503,-0.11537 -46.2553,-0.61741 z"
     id="path4593"
     inkscape:connector-curvature="0"
     transform="matrix(0.75010214,0,0,0.75010214,-0.032685,0)" />
</svg>
