<?xml version="1.0" encoding="UTF-8" standalone="no"?>
<svg
   xmlns:dc="http://purl.org/dc/elements/1.1/"
   xmlns:cc="http://creativecommons.org/ns#"
   xmlns:rdf="http://www.w3.org/1999/02/22-rdf-syntax-ns#"
   xmlns:svg="http://www.w3.org/2000/svg"
   xmlns="http://www.w3.org/2000/svg"
   xmlns:sodipodi="http://sodipodi.sourceforge.net/DTD/sodipodi-0.dtd"
   xmlns:inkscape="http://www.inkscape.org/namespaces/inkscape"
   height="512pt"
   version="1.1"
   viewBox="0 -34 512.00067 512"
   width="512pt"
   id="svg15"
   sodipodi:docname="share_folder.svg"
   inkscape:version="0.92.4 (5da689c313, 2019-01-14)">
  <metadata
     id="metadata21">
    <rdf:RDF>
      <cc:Work
         rdf:about="">
        <dc:format>image/svg+xml</dc:format>
        <dc:type
           rdf:resource="http://purl.org/dc/dcmitype/StillImage" />
      </cc:Work>
    </rdf:RDF>
  </metadata>
  <defs
     id="defs19" />
  <sodipodi:namedview
     pagecolor="#ffffff"
     bordercolor="#666666"
     borderopacity="1"
     objecttolerance="10"
     gridtolerance="10"
     guidetolerance="10"
     inkscape:pageopacity="0"
     inkscape:pageshadow="2"
     inkscape:window-width="1920"
     inkscape:window-height="1001"
     id="namedview17"
     showgrid="false"
     inkscape:zoom="0.9777961"
     inkscape:cx="341.33333"
     inkscape:cy="341.33333"
     inkscape:window-x="-9"
     inkscape:window-y="-9"
     inkscape:window-maximized="1"
     inkscape:current-layer="surface1" />
  <g
     id="surface1">
    <path
       d="M 242.972656 356.59375 L 347.226562 251.988281 L 302.113281 206.871094 L 197.507812 311.125 L 176.585938 377.511719 Z M 477.078125 158.835938 C 491.21875 158.835938 502.207031 171.34375 500.21875 185.367188 L 471.585938 393.640625 C 468.546875 415.613281 449.726562 431.976562 427.640625 431.976562 L 84.957031 431.976562 C 62.75 431.976562 44.046875 415.613281 41.007812 393.640625 L 11.90625 185.367188 C 9.917969 171.34375 20.90625 158.71875 35.046875 158.71875 L 477.078125 158.71875 Z M 477.078125 158.835938 "
       style=" stroke:none;fill-rule:nonzero;fill:rgb(0%,67.45098%,91.764706%);fill-opacity:1;"
       id="path2" />
    <path
       d="M 465.742188 120.03125 L 465.742188 158.835938 L 51.0625 158.835938 L 46.503906 58.554688 C 45.335938 33.3125 65.554688 12.15625 90.914062 12.15625 L 186.636719 12.15625 C 202.183594 12.15625 216.675781 20.335938 224.738281 33.777344 L 236.894531 54.113281 C 244.960938 67.554688 259.335938 75.734375 274.996094 75.734375 L 421.210938 75.734375 C 445.753906 75.621094 465.742188 95.488281 465.742188 120.03125 Z M 465.742188 120.03125 "
       style=" stroke:none;fill-rule:nonzero;fill:rgb(0%,93.72549%,81.960784%);fill-opacity:1;"
       id="path4" />
    <path
       d="M 347.226562 251.988281 L 242.972656 356.59375 L 197.507812 311.125 L 302.113281 206.871094 Z M 347.226562 251.988281 "
       style=" stroke:none;fill-rule:nonzero;fill:rgb(0%,67.45098%,91.764706%);fill-opacity:1;"
       id="path6" />
    <path
       d="M 242.972656 356.59375 L 176.585938 377.511719 L 197.507812 311.125 Z M 242.972656 356.59375 "
       style=" stroke:none;fill-rule:nonzero;fill:rgb(0%,67.45098%,91.764706%);fill-opacity:1;"
       id="path8" />
    <path
       d="M 503.257812 159.070312 C 496.710938 151.472656 487.480469 147.148438 476.960938 147.03125 L 476.960938 119.914062 C 476.960938 88.945312 452.183594 64.164062 421.210938 64.164062 L 274.996094 64.164062 C 263.542969 64.164062 252.789062 57.855469 246.945312 48.035156 L 234.792969 27.351562 C 224.625 10.753906 206.273438 0 186.636719 0 L 90.914062 0 C 75.488281 0 60.996094 6.3125 50.359375 17.53125 C 39.722656 28.75 34.230469 43.59375 34.816406 59.023438 L 38.789062 147.265625 L 35.046875 147.265625 C 24.878906 147.265625 15.296875 151.589844 8.632812 159.1875 C 1.972656 166.898438 -1.066406 176.953125 0.335938 187.003906 L 29.320312 395.628906 C 33.179688 423.210938 57.023438 444.132812 84.835938 444.132812 L 427.519531 444.132812 C 455.453125 444.132812 479.296875 423.09375 483.15625 395.394531 L 511.671875 187.003906 C 513.074219 176.953125 509.921875 166.785156 503.257812 159.070312 Z M 58.191406 58.089844 C 57.839844 49.089844 60.996094 40.324219 67.191406 33.777344 C 73.382812 27.234375 81.800781 23.375 90.800781 23.375 L 186.523438 23.375 C 197.976562 23.375 208.730469 29.6875 214.574219 39.503906 L 226.726562 60.191406 C 236.78125 77.019531 255.246094 87.773438 274.882812 87.773438 L 421.09375 87.773438 C 439.09375 87.773438 453.46875 102.03125 453.46875 120.148438 L 453.46875 147.265625 L 62.28125 147.265625 Z M 488.648438 183.730469 L 460.015625 392.238281 C 457.792969 408.367188 443.886719 420.757812 427.640625 420.757812 L 84.957031 420.757812 C 68.710938 420.757812 54.800781 408.367188 52.582031 392.355469 L 23.476562 183.847656 C 23.011719 180.457031 23.945312 177.1875 26.28125 174.613281 C 28.503906 172.042969 31.660156 170.640625 35.046875 170.640625 L 477.078125 170.640625 C 480.464844 170.640625 483.621094 171.925781 485.84375 174.613281 C 488.179688 177.1875 489.117188 180.339844 488.648438 183.730469 Z M 488.648438 183.730469 "
       style=" stroke:none;fill-rule:nonzero;fill:rgb(3.137255%,21.960784%,38.823529%);fill-opacity:1;"
       id="path10" />
    <path
       inkscape:connector-curvature="0"
       style="fill:#fedb41;stroke-width:0.69290292"
       d="m 282.96835,177.18507 c 61.43982,7.09395 109.55916,56.29016 110.74229,116.84981 1.29339,66.2033 -54.09078,120.90049 -123.67171,122.13109 -47.83553,0.84601 -90.0413,-23.80745 -112.02411,-60.85969 -10.01782,-16.8494 -15.93294,-36.21654 -16.33715,-56.90639 -1.29339,-66.2033 54.09359,-120.89789 123.67455,-122.12849 5.93343,-0.01 11.76972,0.26451 17.61613,0.91367 z m 0,0"
       id="path14" />
    <path
       inkscape:connector-curvature="0"
       style="fill:#083863;stroke-width:0.7686829"
       d="m 320.89763,274.51889 c -4.06423,-4.28317 -10.50287,-4.15226 -14.41878,0.29315 -3.91307,4.44223 -3.79328,11.49104 0.26803,15.77111 l 13.85354,14.6029 c 13.33489,14.16115 13.73407,37.64985 0.89146,52.4563 -6.22032,7.06463 -14.64679,11.03954 -23.74645,11.22456 -9.10252,0.18506 -17.7587,-3.44254 -24.21473,-10.24944 l -13.85541,-14.71278 c -4.06413,-4.27689 -10.50566,-4.14592 -14.42165,0.29322 -3.91016,4.4453 -3.79043,11.49096 0.26807,15.77424 l 13.95874,14.7107 c 10.52119,10.97384 24.32786,16.73615 38.74377,16.44304 14.52212,-0.29525 28.02108,-6.7258 38.15639,-18.11962 20.6716,-23.6941 19.92859,-61.50127 -1.52994,-84.11266 z m 0,0"
       id="path16" />
    <path
       inkscape:connector-curvature="0"
       style="fill:#083863;stroke-width:0.7686829"
       d="m 232.74566,227.97326 c 9.09965,-0.18503 17.753,3.44577 24.31521,10.24738 l 13.85348,14.59976 c 4.06423,4.28316 10.50289,4.15225 14.41878,-0.29315 3.9131,-4.44224 3.7933,-11.49105 -0.26802,-15.77112 l -13.95582,-14.7076 c -10.52122,-10.97699 -24.32791,-16.7393 -38.74382,-16.4462 -14.52212,0.29526 -28.02114,6.72266 -38.1564,18.11962 -20.67159,23.69409 -20.0291,61.50018 1.42947,84.1147 l 13.85063,14.59981 c 2.08475,2.19706 4.65948,3.14979 7.31761,3.09574 2.65813,-0.054 5.19392,-1.22375 7.2045,-3.39099 3.91591,-4.44542 3.79622,-11.48795 -0.26801,-15.77111 l -13.8554,-14.71279 c -13.43638,-14.04916 -13.73408,-37.64985 -0.89152,-52.45944 6.22323,-7.06156 14.64391,-11.03949 23.74931,-11.22461 z m 0,0"
       id="path18" />
    <path
       inkscape:connector-curvature="0"
       style="fill:#083863;stroke-width:0.7686829"
       d="m 283.35144,328.54504 c 2.66102,-0.0541 5.19681,-1.2238 7.20447,-3.39413 3.91594,-4.44228 3.79615,-11.49108 -0.26797,-15.76797 l -35.83252,-37.76277 c -4.06132,-4.28009 -10.5057,-4.14905 -14.41592,0.2931 -3.916,4.43913 -3.79622,11.48795 0.26802,15.77111 l 35.83247,37.75963 c 1.97666,2.08932 4.6538,3.15303 7.21145,3.10103 z m 0,0"
       id="path20" />
  </g>
</svg>
