<svg xmlns="http://www.w3.org/2000/svg" height="511pt" version="1.1" viewBox="1 -39 511.9992 511" width="511pt">
<g id="surface1">
<path d="M 500.222656 135.152344 L 500.222656 378.183594 C 500.222656 401.96875 480.96875 421.21875 457.1875 421.21875 L 69.535156 421.21875 L 69.535156 135.152344 C 69.535156 111.371094 88.789062 92.117188 112.570312 92.117188 L 457.1875 92.117188 C 480.96875 92.117188 500.222656 111.371094 500.222656 135.152344 Z M 385.273438 257.574219 C 385.273438 200.042969 338.613281 153.5 281.199219 153.5 C 223.78125 153.5 177.121094 200.15625 177.121094 257.574219 C 177.121094 314.992188 223.667969 361.652344 281.199219 361.652344 C 338.726562 361.652344 385.273438 315.105469 385.273438 257.574219 Z M 385.273438 257.574219 " style=" stroke:none;fill-rule:nonzero;fill:rgb(0%,67.45098%,91.764706%);fill-opacity:1;" />
<path d="M 385.273438 257.574219 C 385.273438 315.054688 338.675781 361.652344 281.199219 361.652344 C 223.71875 361.652344 177.121094 315.054688 177.121094 257.574219 C 177.121094 200.09375 223.71875 153.5 281.199219 153.5 C 338.675781 153.5 385.273438 200.09375 385.273438 257.574219 Z M 385.273438 257.574219 " style=" stroke:none;fill-rule:nonzero;fill:rgb(0%,67.45098%,91.764706%);fill-opacity:1;" />
<path d="M 204.867188 28.132812 L 257.074219 92.003906 L 112.570312 92.003906 C 88.789062 92.003906 69.535156 111.257812 69.535156 135.039062 L 69.535156 421.105469 L 54.699219 421.105469 C 30.917969 421.105469 11.664062 401.855469 11.664062 378.070312 L 11.664062 55.425781 C 11.664062 31.644531 30.917969 12.390625 54.699219 12.390625 L 171.574219 12.390625 C 184.371094 12.390625 196.601562 18.167969 204.867188 28.132812 Z M 204.867188 28.132812 " style=" stroke:none;fill-rule:nonzero;fill:rgb(0%,93.72549%,81.960784%);fill-opacity:1;" />
<path d="M 457.1875 80.90625 L 262.398438 80.90625 L 213.585938 20.769531 C 203.167969 8.085938 187.878906 0.5 171.457031 0.5 L 54.699219 0.5 C 24.6875 0.5 0 25.414062 0 55.425781 L 0 378.300781 C 0 408.195312 24.6875 433.109375 54.699219 433.109375 L 457.300781 433.109375 C 487.3125 433.109375 512 408.195312 512 378.183594 L 512 135.152344 C 511.886719 105.140625 487.199219 80.90625 457.1875 80.90625 Z M 57.757812 135.152344 L 57.757812 410.460938 L 54.699219 410.460938 C 37.144531 410.460938 22.648438 395.738281 22.648438 378.183594 L 22.648438 55.425781 C 22.648438 37.871094 37.144531 23.148438 54.699219 23.148438 L 171.574219 23.148438 C 181.085938 23.148438 190.03125 27.679688 196.148438 35.152344 L 233.179688 80.90625 L 112.570312 80.90625 C 82.671875 80.90625 57.757812 105.140625 57.757812 135.152344 Z M 489.238281 378.1875 C 489.238281 395.625 474.742188 410.460938 457.1875 410.460938 L 80.40625 410.460938 L 80.40625 135.152344 C 80.40625 117.710938 95.128906 103.554688 112.570312 103.554688 L 457.1875 103.554688 C 474.628906 103.554688 489.238281 117.710938 489.238281 135.152344 Z M 489.238281 378.1875 " style=" stroke:none;fill-rule:nonzero;fill:rgb(3.137255%,21.960784%,38.823529%);fill-opacity:1;" />
<path d="M 327.402344 246.25 L 292.183594 246.25 L 292.183594 211.257812 C 292.183594 205.027344 287.085938 199.929688 280.859375 199.929688 C 274.628906 199.929688 269.53125 205.027344 269.53125 211.257812 L 269.53125 246.25 L 234.878906 246.25 C 228.648438 246.25 223.554688 251.347656 223.554688 257.574219 C 223.554688 263.804688 228.648438 268.902344 234.878906 268.902344 L 269.53125 268.902344 L 269.53125 303.894531 C 269.53125 310.125 274.628906 315.21875 280.859375 315.21875 C 287.085938 315.21875 292.183594 310.125 292.183594 303.894531 L 292.183594 268.902344 L 327.402344 268.902344 C 333.632812 268.902344 338.730469 263.804688 338.730469 257.574219 C 338.730469 251.347656 333.632812 246.25 327.402344 246.25 Z M 327.402344 246.25 " style=" stroke:none;fill-rule:nonzero;fill:rgb(3.137255%,21.960784%,38.823529%);fill-opacity:1;" />
<path d="M 281.199219 142.171875 C 217.550781 142.171875 165.796875 193.929688 165.796875 257.574219 C 165.796875 321.222656 217.550781 372.976562 281.199219 372.976562 C 344.84375 372.976562 396.597656 321.222656 396.597656 257.574219 C 396.597656 193.929688 344.84375 142.171875 281.199219 142.171875 Z M 281.199219 350.328125 C 230.007812 350.328125 188.445312 308.765625 188.445312 257.574219 C 188.445312 206.386719 230.007812 164.824219 281.199219 164.824219 C 332.386719 164.824219 373.949219 206.386719 373.949219 257.574219 C 373.949219 308.765625 332.273438 350.328125 281.199219 350.328125 Z M 281.199219 350.328125 " style=" stroke:none;fill-rule:nonzero;fill:rgb(3.137255%,21.960784%,38.823529%);fill-opacity:1;" />
</g>
</svg>