<svg height="638pt" viewBox="-57 0 638 638.75085" width="638pt" xmlns="http://www.w3.org/2000/svg"><path d="m317.5 238.539062-44.925781-121.921874h-214.023438c-32.199219 0-58.175781 26.507812-58.175781 58.707031v404.71875c0 32.203125 25.976562 58.707031 58.175781 58.707031h290.488281c32.203126 0 58.175782-26.503906 58.175782-58.707031v-321.496094zm0 0" fill="#00efd1"/><path d="m377.132812 180.230469-44.925781-121.921875h-214.019531c-32.203125 0-58.175781 26.507812-58.175781 58.707031v404.71875c0 32.203125 25.972656 58.707031 58.175781 58.707031h290.484375c32.203125 0 58.179687-26.503906 58.179687-58.707031v-321.496094zm0 0" fill="#fedb41"/><path d="m435.441406 121.917969-44.925781-121.917969h-214.019531c-32.203125 0-58.175782 26.503906-58.175782 58.707031v404.71875c0 32.203125 25.972657 58.707031 58.175782 58.707031h290.488281c32.199219 0 58.175781-26.503906 58.175781-58.707031v-321.496093zm0 0" fill="#00acea"/><path d="m390.515625.398438 134.777344 141.664062h-89.71875c-24.914063 0-45.058594-20.144531-45.058594-45.054688zm0 0" fill="#00efd1"/><g fill="#083863"><path d="m430.804688 424.066406h-218.128907c-7.292969 0-13.257812 5.960938-13.257812 13.253906 0 7.289063 5.964843 13.25 13.257812 13.25h218.257813c7.292968 0 13.25-5.960937 13.25-13.25 0-7.292968-5.957032-13.253906-13.378906-13.253906zm0 0"/><path d="m217.839844 216.007812h15.371094l14.179687 160.484376c.664063 6.890624 6.363281 11.792968 13.257813 11.792968h122.3125c6.890624 0 12.589843-5.035156 13.25-11.792968l14.050781-160.484376h15.371093c7.289063 0 13.253907-5.964843 13.253907-13.25 0-7.289062-5.964844-13.253906-13.253907-13.253906h-51.550781v-8.480468c0-14.578126-11.261719-25.976563-25.84375-25.976563h-53.003906c-14.578125 0-25.84375 11.269531-25.84375 25.976563v8.480468h-51.550781c-7.285156 0-13.25 5.964844-13.25 13.253906 0 7.285157 5.828125 13.25 13.25 13.25zm152.929687 145.773438h-98.066406l-12.984375-145.773438h123.90625zm-74.875-180.226562h51.683594v7.949218h-51.683594zm0 0"/></g></svg>