<svg height="640pt" viewBox="0 -52 640 640" width="640pt" xmlns="http://www.w3.org/2000/svg"><path d="m320.964844 59.28125-61.492188-59.28125h-211.214844l7.855469 219.214844h532.734375v-159.933594zm0 0" fill="#00efd1"/><path d="m536.460938 219.214844v.550781h-432.921876v-105.332031h432.921876zm0 0" fill="#fedb41"/><path d="m640 205.980469-58.042969 329.097656h-523.222656l-58.734375-329.097656zm0 0" fill="#00acea"/><path d="m408.101562 302.074219 25.089844-25.089844c5.378906-5.378906 5.378906-14.0625 0-19.441406-5.375-5.375-14.0625-5.375-19.441406 0l-29.917969 29.917969c-21.507812-10.890626-42.875-16.265626-63.695312-16.265626-83.550781 0-148.488281 87.6875-151.246094 91.40625-3.582031 4.824219-3.582031 11.445313 0 16.269532 1.105469 1.515625 25.507813 34.605468 63.144531 60.527344l-25.09375 25.089843c-5.375 5.378907-5.375 14.066407 0 19.441407 2.761719 2.753906 6.207032 4 9.792969 4 3.582031 0 7.03125-1.382813 9.789063-4l29.917968-29.917969c21.371094 10.617187 42.738282 16.128906 63.558594 16.128906 83.550781 0 148.484375-87.683594 151.246094-91.40625 3.582031-4.828125 3.582031-11.445313 0-16.269531-1.105469-1.519532-25.507813-34.46875-63.144532-60.390625zm-143.527343 104.507812-12.683594 12.683594c-25.09375-16.40625-44.667969-37.363281-54.179687-48.664063 17.230468-20.40625 66.3125-71.972656 122.425781-71.972656 13.789062 0 28.265625 3.171875 42.878906 9.515625l-6.894531 6.890625c-10.613282-6.890625-23.027344-10.617187-35.984375-10.617187-36.398438 0-66.039063 29.644531-66.039063 66.183593-.136718 13.09375 3.582032 25.5 10.476563 35.980469zm90.582031-51.5625c2.207031 4.824219 3.308594 10.199219 3.308594 15.71875 0 21.230469-17.234375 38.464844-38.464844 38.464844-5.511719 0-10.753906-1.101563-15.71875-3.308594zm-70.3125 31.292969c-2.207031-4.824219-3.3125-10.199219-3.3125-15.71875 0-21.230469 17.238281-38.601562 38.46875-38.601562 5.511719 0 10.75 1.101562 15.71875 3.308593zm35.15625 56.253906c-13.789062 0-28.261719-3.171875-42.875-9.515625l7.03125-7.03125c10.613281 6.894531 23.019531 10.621094 35.980469 10.621094 36.402343 0 66.039062-29.644531 66.039062-66.039063 0-12.964843-3.71875-25.371093-10.613281-35.988281l12.683594-12.820312c25.09375 16.40625 44.667968 37.363281 54.183594 48.671875-17.234376 20.535156-66.316407 72.101562-122.429688 72.101562zm0 0" fill="#083863"/></svg>