<svg height="640pt" viewBox="-30 0 640 640" width="640pt" xmlns="http://www.w3.org/2000/svg"><path d="m300.585938 101.449219-15.308594-101.449219h-224.601563c-33.820312 0-60.675781 27.554688-60.675781 61.371094v424.71875c0 33.816406 26.855469 60.8125 60.675781 60.8125h213.054688l153.492187-232.402344v-165.734375zm0 0" fill="#00acea"/><path d="m285.277344.140625 141.527344 148.625h-94.210938c-26.164062 0-47.316406-21.152344-47.316406-47.316406zm0 0" fill="#00efd1"/><g fill="#083863"><path d="m98.527344 346.507812h181.324218c7.652344 0 13.917969-6.257812 13.917969-13.914062 0-7.652344-6.265625-13.917969-13.917969-13.917969h-181.324218c-7.652344 0-13.917969 6.265625-13.917969 13.917969 0 7.65625 6.265625 13.914062 13.917969 13.914062zm0 0"/><path d="m98.527344 276.929688h140.96875c7.652344 0 13.917968-6.261719 13.917968-13.917969 0-7.652344-6.265624-13.914063-13.917968-13.914063h-140.96875c-7.652344 0-13.917969 6.261719-13.917969 13.914063 0 7.65625 6.265625 13.917969 13.917969 13.917969zm0 0"/><path d="m234.066406 389.648438h-135.539062c-7.652344 0-13.917969 6.265624-13.917969 13.914062 0 7.65625 6.265625 13.917969 13.917969 13.917969h135.539062c7.65625 0 13.917969-6.261719 13.917969-13.917969 0-7.648438-6.261719-13.914062-13.917969-13.914062zm0 0"/></g><path d="m426.804688 286.8125c86.28125 12.101562 152.65625 86.136719 152.65625 175.753906 0 97.96875-79.457032 177.433594-177.425782 177.433594-67.351562 0-126.078125-37.574219-156-92.960938-13.636718-25.1875-21.429687-53.992187-21.429687-84.609374 0-97.96875 79.460937-177.429688 177.429687-177.429688 8.351563.140625 16.558594.699219 24.769532 1.8125zm0 0" fill="#fedb41"/><path d="m490.679688 393.824219 25.324218-25.328125c5.429688-5.425782 5.429688-14.195313 0-19.621094-5.421875-5.429688-14.191406-5.429688-19.617187 0l-30.199219 30.195312c-21.710938-10.988281-43.277344-16.417968-64.292969-16.417968-84.332031 0-149.871093 88.503906-152.65625 92.265625-3.621093 4.867187-3.621093 11.546875 0 16.417969 1.113281 1.53125 25.742188 34.929687 63.734375 61.089843l-25.324218 25.328125c-5.429688 5.429688-5.429688 14.195313 0 19.625 2.78125 2.78125 6.257812 4.03125 9.875 4.03125 3.617187 0 7.101562-1.390625 9.882812-4.03125l30.195312-30.203125c21.710938 10.996094 43.28125 16.421875 64.292969 16.421875 84.332031 0 149.878907-88.503906 152.660157-92.261718 3.617187-4.871094 3.617187-11.550782 0-16.417969-1.253907-1.671875-25.882813-35.070313-63.875-61.09375zm-144.863282 105.480469-12.808594 12.808593c-25.324218-16.5625-45.082031-37.714843-54.6875-49.125 17.398438-20.597656 66.9375-72.640625 123.574219-72.640625 13.914063 0 28.53125 3.195313 43.28125 9.597656l-6.957031 6.957032c-10.71875-6.957032-23.242188-10.710938-36.324219-10.710938-36.738281 0-66.65625 29.917969-66.65625 66.796875-.140625 13.082031 3.617188 25.605469 10.578125 36.316407zm91.566406-52.179688c2.226563 4.867188 3.339844 10.296875 3.339844 15.863281 0 21.429688-17.398437 38.824219-38.828125 38.824219-5.566406 0-10.992187-1.113281-15.863281-3.339844zm-71.113281 31.726562c-2.226562-4.871093-3.339843-10.296874-3.339843-15.863281 0-21.429687 17.398437-38.964843 38.828124-38.964843 5.566407 0 10.992188 1.113281 15.863282 3.339843zm35.488281 56.777344c-13.917968 0-28.53125-3.203125-43.28125-9.605468l6.957032-6.957032c10.71875 6.957032 23.242187 10.71875 36.324218 10.71875 36.738282 0 66.65625-29.917968 66.65625-66.660156 0-13.082031-3.757812-25.605469-10.714843-36.320312l12.804687-12.800782c25.324219 16.558594 45.085938 37.710938 54.6875 49.121094-17.257812 20.457031-66.65625 72.503906-123.433594 72.503906zm0 0" fill="#083863"/></svg>