<svg xmlns="http://www.w3.org/2000/svg" height="512pt" version="1.1" viewBox="0 -34 512.00067 512" width="512pt">
<g id="surface1">
<path d="M 323.5 235.039062 L 291.125 235.039062 L 291.125 215.753906 C 291.125 209.328125 285.867188 204.066406 279.4375 204.066406 L 232.6875 204.066406 C 226.261719 204.066406 221 209.328125 221 215.753906 L 221 235.039062 L 188.625 235.039062 L 202.066406 387.445312 L 309.945312 387.445312 Z M 477.078125 158.835938 C 491.21875 158.835938 502.207031 171.34375 500.21875 185.367188 L 471.585938 393.640625 C 468.546875 415.613281 449.726562 431.976562 427.640625 431.976562 L 84.957031 431.976562 C 62.75 431.976562 44.046875 415.613281 41.007812 393.640625 L 11.90625 185.367188 C 9.917969 171.34375 20.90625 158.71875 35.046875 158.71875 L 477.078125 158.71875 Z M 477.078125 158.835938 " style=" stroke:none;fill-rule:nonzero;fill:rgb(0%,67.45098%,91.764706%);fill-opacity:1;" />
<path d="M 465.742188 120.03125 L 465.742188 158.835938 L 51.0625 158.835938 L 46.503906 58.554688 C 45.335938 33.3125 65.554688 12.15625 90.914062 12.15625 L 186.636719 12.15625 C 202.183594 12.15625 216.675781 20.335938 224.738281 33.777344 L 236.894531 54.113281 C 244.960938 67.554688 259.335938 75.734375 274.996094 75.734375 L 421.210938 75.734375 C 445.753906 75.621094 465.742188 95.488281 465.742188 120.03125 Z M 465.742188 120.03125 " style=" stroke:none;fill-rule:nonzero;fill:rgb(0%,93.72549%,81.960784%);fill-opacity:1;" />
<path d="M 323.5 235.039062 L 309.945312 387.332031 L 202.183594 387.332031 L 188.625 235.039062 Z M 323.5 235.039062 " style=" stroke:none;fill-rule:nonzero;fill:rgb(0%,67.45098%,91.764706%);fill-opacity:1;" />
<path d="M 291.125 215.753906 L 291.125 235.039062 L 221 235.039062 L 221 215.753906 C 221 209.328125 226.261719 204.066406 232.6875 204.066406 L 279.4375 204.066406 C 285.867188 204.066406 291.125 209.210938 291.125 215.753906 Z M 291.125 215.753906 " style=" stroke:none;fill-rule:nonzero;fill:rgb(0%,67.45098%,91.764706%);fill-opacity:1;" />
<path d="M 503.257812 159.070312 C 496.710938 151.472656 487.480469 147.148438 476.960938 147.03125 L 476.960938 119.914062 C 476.960938 88.945312 452.183594 64.164062 421.210938 64.164062 L 274.996094 64.164062 C 263.542969 64.164062 252.789062 57.855469 246.945312 48.035156 L 234.792969 27.351562 C 224.625 10.753906 206.273438 0 186.636719 0 L 90.914062 0 C 75.488281 0 60.996094 6.3125 50.359375 17.53125 C 39.722656 28.75 34.230469 43.59375 34.816406 59.023438 L 38.789062 147.265625 L 35.046875 147.265625 C 24.878906 147.265625 15.296875 151.589844 8.632812 159.1875 C 1.972656 166.898438 -1.066406 176.953125 0.335938 187.003906 L 29.320312 395.628906 C 33.179688 423.210938 57.023438 444.132812 84.835938 444.132812 L 427.519531 444.132812 C 455.453125 444.132812 479.296875 423.09375 483.15625 395.394531 L 511.671875 187.003906 C 513.074219 176.953125 509.921875 166.785156 503.257812 159.070312 Z M 58.191406 58.089844 C 57.839844 49.089844 60.996094 40.324219 67.191406 33.777344 C 73.382812 27.234375 81.800781 23.375 90.800781 23.375 L 186.523438 23.375 C 197.976562 23.375 208.730469 29.6875 214.574219 39.503906 L 226.726562 60.191406 C 236.78125 77.019531 255.246094 87.773438 274.882812 87.773438 L 421.09375 87.773438 C 439.09375 87.773438 453.46875 102.03125 453.46875 120.148438 L 453.46875 147.265625 L 62.28125 147.265625 Z M 488.648438 183.730469 L 460.015625 392.238281 C 457.792969 408.367188 443.886719 420.757812 427.640625 420.757812 L 84.957031 420.757812 C 68.710938 420.757812 54.800781 408.367188 52.582031 392.355469 L 23.476562 183.847656 C 23.011719 180.457031 23.945312 177.1875 26.28125 174.613281 C 28.503906 172.042969 31.660156 170.640625 35.046875 170.640625 L 477.078125 170.640625 C 480.464844 170.640625 483.621094 171.925781 485.84375 174.613281 C 488.179688 177.1875 489.117188 180.339844 488.648438 183.730469 Z M 488.648438 183.730469 " style=" stroke:none;fill-rule:nonzero;fill:rgb(3.137255%,21.960784%,38.823529%);fill-opacity:1;" />
<path d="M 347.695312 223.234375 L 302.8125 223.234375 L 302.8125 215.753906 C 302.8125 202.898438 292.292969 192.847656 279.4375 192.847656 L 232.6875 192.847656 C 219.832031 192.847656 209.3125 202.78125 209.3125 215.753906 L 209.3125 223.234375 L 164.429688 223.234375 C 158.003906 223.234375 152.742188 228.496094 152.742188 234.921875 C 152.742188 241.351562 158.003906 246.613281 164.429688 246.613281 L 177.988281 246.613281 L 190.496094 388.148438 C 191.078125 394.226562 196.105469 398.550781 202.183594 398.550781 L 310.0625 398.550781 C 316.136719 398.550781 321.164062 394.109375 321.75 388.148438 L 334.136719 246.613281 L 347.695312 246.613281 C 354.125 246.613281 359.382812 241.351562 359.382812 234.921875 C 359.382812 228.496094 354.238281 223.234375 347.695312 223.234375 Z M 232.6875 216.222656 L 279.4375 216.222656 L 279.4375 223.234375 L 232.6875 223.234375 Z M 299.308594 375.175781 L 212.820312 375.175781 L 201.363281 246.609375 L 310.644531 246.609375 Z M 299.308594 375.175781 " style=" stroke:none;fill-rule:nonzero;fill:rgb(3.137255%,21.960784%,38.823529%);fill-opacity:1;" />
</g>
</svg>