<svg height="640pt" viewBox="-30 0 640 640" width="640pt" xmlns="http://www.w3.org/2000/svg"><path d="m300.585938 101.449219-15.308594-101.449219h-224.601563c-33.820312 0-60.675781 27.554688-60.675781 61.371094v424.71875c0 33.816406 26.855469 60.8125 60.675781 60.8125h213.054688l153.492187-232.402344v-165.734375zm0 0" fill="#00acea"/><path d="m285.277344.140625 141.527344 148.625h-94.210938c-26.164062 0-47.316406-21.152344-47.316406-47.316406zm0 0" fill="#00efd1"/><g fill="#083863"><path d="m98.527344 346.507812h181.324218c7.652344 0 13.917969-6.257812 13.917969-13.914062 0-7.652344-6.265625-13.917969-13.917969-13.917969h-181.324218c-7.652344 0-13.917969 6.265625-13.917969 13.917969 0 7.65625 6.265625 13.914062 13.917969 13.914062zm0 0"/><path d="m98.527344 276.929688h140.96875c7.652344 0 13.917968-6.261719 13.917968-13.917969 0-7.652344-6.265624-13.914063-13.917968-13.914063h-140.96875c-7.652344 0-13.917969 6.261719-13.917969 13.914063 0 7.65625 6.265625 13.917969 13.917969 13.917969zm0 0"/><path d="m234.066406 389.648438h-135.539062c-7.652344 0-13.917969 6.265624-13.917969 13.914062 0 7.65625 6.265625 13.917969 13.917969 13.917969h135.539062c7.65625 0 13.917969-6.261719 13.917969-13.917969 0-7.648438-6.261719-13.914062-13.917969-13.914062zm0 0"/></g><path d="m426.804688 286.8125c86.28125 12.101562 152.65625 86.136719 152.65625 175.753906 0 97.96875-79.457032 177.433594-177.425782 177.433594-67.351562 0-126.078125-37.574219-156-92.960938-13.636718-25.1875-21.429687-53.992187-21.429687-84.609374 0-97.96875 79.460937-177.429688 177.429687-177.429688 8.351563.140625 16.558594.699219 24.769532 1.8125zm0 0" fill="#fedb41"/><path d="m451.855469 413.027344c-5.429688-5.425782-14.195313-5.425782-19.625 0l-30.335938 30.335937-30.335937-30.335937c-5.425782-5.425782-14.195313-5.425782-19.621094 0-5.429688 5.429687-5.429688 14.195312 0 19.625l30.335938 30.335937-30.335938 30.335938c-5.429688 5.425781-5.429688 14.195312 0 19.621093 2.785156 2.78125 6.261719 4.035157 9.878906 4.035157 3.617188 0 7.097656-1.390625 9.882813-4.035157l30.335937-30.339843 30.335938 30.339843c2.785156 2.78125 6.261718 4.035157 9.878906 4.035157s7.101562-1.390625 9.882812-4.035157c5.425782-5.425781 5.425782-14.195312 0-19.621093l-30.335937-30.335938 30.335937-30.335937c5.148438-5.429688 5.148438-14.195313-.277343-19.625zm0 0" fill="#083863"/><path d="m401.757812 321.179688c-78.207031 0-141.804687 63.601562-141.804687 141.808593s63.597656 141.800781 141.804687 141.800781c78.207032 0 141.800782-63.59375 141.800782-141.800781s-63.59375-141.808593-141.800782-141.808593zm0 255.78125c-62.902343 0-113.976562-51.074219-113.976562-113.972657 0-62.902343 51.074219-113.976562 113.976562-113.976562 62.898438 0 113.96875 51.074219 113.96875 113.976562 0 62.898438-51.070312 113.972657-113.96875 113.972657zm0 0" fill="#083863"/></svg>