<?xml version="1.0" encoding="UTF-8" standalone="no"?>
<svg
   xmlns:dc="http://purl.org/dc/elements/1.1/"
   xmlns:cc="http://creativecommons.org/ns#"
   xmlns:rdf="http://www.w3.org/1999/02/22-rdf-syntax-ns#"
   xmlns:svg="http://www.w3.org/2000/svg"
   xmlns="http://www.w3.org/2000/svg"
   xmlns:sodipodi="http://sodipodi.sourceforge.net/DTD/sodipodi-0.dtd"
   xmlns:inkscape="http://www.inkscape.org/namespaces/inkscape"
   height="640pt"
   viewBox="-30 0 640 640"
   width="640pt"
   version="1.1"
   id="svg18"
   sodipodi:docname="download_file.svg"
   inkscape:version="0.92.4 (5da689c313, 2019-01-14)">
  <metadata
     id="metadata24">
    <rdf:RDF>
      <cc:Work
         rdf:about="">
        <dc:format>image/svg+xml</dc:format>
        <dc:type
           rdf:resource="http://purl.org/dc/dcmitype/StillImage" />
        <dc:title></dc:title>
      </cc:Work>
    </rdf:RDF>
  </metadata>
  <defs
     id="defs22" />
  <sodipodi:namedview
     pagecolor="#ffffff"
     bordercolor="#666666"
     borderopacity="1"
     objecttolerance="10"
     gridtolerance="10"
     guidetolerance="10"
     inkscape:pageopacity="0"
     inkscape:pageshadow="2"
     inkscape:window-width="1920"
     inkscape:window-height="1013"
     id="namedview20"
     showgrid="false"
     inkscape:zoom="1.10625"
     inkscape:cx="426.66667"
     inkscape:cy="571.29944"
     inkscape:window-x="-9"
     inkscape:window-y="-9"
     inkscape:window-maximized="1"
     inkscape:current-layer="svg18" />
  <path
     d="m300.585938 101.449219-15.308594-101.449219h-224.601563c-33.820312 0-60.675781 27.554688-60.675781 61.371094v424.71875c0 33.816406 26.855469 60.8125 60.675781 60.8125h213.054688l153.492187-232.402344v-165.734375zm0 0"
     fill="#00acea"
     id="path2" />
  <path
     d="m285.277344.140625 141.527344 148.625h-94.210938c-26.164062 0-47.316406-21.152344-47.316406-47.316406zm0 0"
     fill="#00efd1"
     id="path4" />
  <g
     fill="#083863"
     id="g12">
    <path
       d="m279.851562 318.675781h-181.324218c-7.652344 0-13.917969 6.265625-13.917969 13.917969 0 7.65625 6.265625 13.914062 13.917969 13.914062h181.324218c7.652344 0 13.917969-6.257812 13.917969-13.914062 0-7.652344-6.121093-13.917969-13.917969-13.917969zm0 0"
       id="path6" />
    <path
       d="m98.527344 276.929688h140.96875c7.652344 0 13.917968-6.261719 13.917968-13.917969 0-7.652344-6.265624-13.914063-13.917968-13.914063h-140.96875c-7.652344 0-13.917969 6.261719-13.917969 13.914063 0 7.65625 6.265625 13.917969 13.917969 13.917969zm0 0"
       id="path8" />
    <path
       d="m234.066406 389.648438h-135.539062c-7.652344 0-13.917969 6.265624-13.917969 13.914062 0 7.65625 6.265625 13.917969 13.917969 13.917969h135.539062c7.65625 0 13.917969-6.261719 13.917969-13.917969 0-7.648438-6.261719-13.914062-13.917969-13.914062zm0 0"
       id="path10" />
  </g>
  <path
     d="m426.804688 286.8125c86.28125 12.101562 152.65625 86.136719 152.65625 175.753906 0 97.96875-79.457032 177.433594-177.425782 177.433594-67.351562 0-126.078125-37.574219-156-92.960938-13.636718-25.1875-21.429687-53.992187-21.429687-84.609374 0-97.96875 79.460937-177.429688 177.429687-177.429688 8.351563.140625 16.558594.699219 24.769532 1.8125zm0 0"
     fill="#fedb41"
     id="path14" />
  <path
     d="m 395.75036,557.97377 c 2.64062,2.78125 6.26172,4.45313 10.15625,4.45313 3.89843,0 7.51562,-1.67188 10.16015,-4.45313 l 81.55078,-87.53516 c 5.28516,-5.5664 4.86719,-14.47265 -0.69921,-19.61718 -2.64063,-2.50782 -6.125,-3.76172 -9.46485,-3.76172 -3.7539,0 -7.64844,1.53515 -10.43359,4.45312 l -57.61328,61.65235 V 361.19643 c 0,-7.65235 -6.26172,-13.91797 -13.91407,-13.91797 -7.65625,0 -13.91796,6.26562 -13.91796,13.91797 v 151.96875 l -57.19532,-61.65235 c -5.28906,-5.5664 -13.91797,-5.98047 -19.62109,-0.6914 -5.56641,5.28515 -5.84375,14.05078 -0.69531,19.61718 z m 0,0"
     id="path16"
     inkscape:connector-curvature="0"
     style="fill:#083863" />
</svg>
