<?xml version="1.0" encoding="UTF-8" standalone="no"?>
<svg
   xmlns:dc="http://purl.org/dc/elements/1.1/"
   xmlns:cc="http://creativecommons.org/ns#"
   xmlns:rdf="http://www.w3.org/1999/02/22-rdf-syntax-ns#"
   xmlns:svg="http://www.w3.org/2000/svg"
   xmlns="http://www.w3.org/2000/svg"
   xmlns:sodipodi="http://sodipodi.sourceforge.net/DTD/sodipodi-0.dtd"
   xmlns:inkscape="http://www.inkscape.org/namespaces/inkscape"
   height="640pt"
   viewBox="-30 0 640 640"
   width="640pt"
   version="1.1"
   id="svg22"
   sodipodi:docname="files.svg"
   inkscape:version="0.92.4 (5da689c313, 2019-01-14)">
  <metadata
     id="metadata28">
    <rdf:RDF>
      <cc:Work
         rdf:about="">
        <dc:format>image/svg+xml</dc:format>
        <dc:type
           rdf:resource="http://purl.org/dc/dcmitype/StillImage" />
        <dc:title></dc:title>
      </cc:Work>
    </rdf:RDF>
  </metadata>
  <defs
     id="defs26" />
  <sodipodi:namedview
     pagecolor="#ffffff"
     bordercolor="#666666"
     borderopacity="1"
     objecttolerance="10"
     gridtolerance="10"
     guidetolerance="10"
     inkscape:pageopacity="0"
     inkscape:pageshadow="2"
     inkscape:window-width="1920"
     inkscape:window-height="1013"
     id="namedview24"
     showgrid="false"
     inkscape:zoom="1.10625"
     inkscape:cx="426.66667"
     inkscape:cy="462.82486"
     inkscape:window-x="-9"
     inkscape:window-y="-9"
     inkscape:window-maximized="1"
     inkscape:current-layer="svg22" />
  <path
     d="M 300.16797,101.44922 284.85938,0 H 60.257813 C 26.437501,0 -0.417968,27.554688 -0.417968,61.371094 V 486.08984 c 0,33.81641 26.855469,60.8125 60.675781,60.8125 H 273.3125 l 153.49219,0.14004 V 148.76563 Z"
     id="path2"
     inkscape:connector-curvature="0"
     style="fill:#00acea"
     sodipodi:nodetypes="ccsssscccc" />
  <path
     d="m285.277344.140625 141.527344 148.625h-94.210938c-26.164062 0-47.316406-21.152344-47.316406-47.316406zm0 0"
     fill="#00efd1"
     id="path4" />
  <g
     fill="#083863"
     id="g12">
    <path
       d="m293.769531 332.59375c0-7.652344-6.265625-13.917969-13.917969-13.917969h-181.324218c-7.652344 0-13.917969 6.265625-13.917969 13.917969 0 7.65625 6.265625 13.914062 13.917969 13.914062h181.324218c7.796876 0 13.917969-6.257812 13.917969-13.914062zm0 0"
       id="path6" />
    <path
       d="m 101.82535,276.92969 h 174.37274 c 9.46565,0 17.21597,-6.26172 17.21597,-13.91797 0,-7.65234 -7.75032,-13.91406 -17.21597,-13.91406 H 101.82535 c -9.465646,0 -17.215975,6.26172 -17.215975,13.91406 0,7.65625 7.750329,13.91797 17.215975,13.91797 z m 0,0"
       id="path8"
       inkscape:connector-curvature="0"
       style="stroke-width:1.11218715" />
    <path
       d="M 276.24068,389.64844 H 102.45476 c -9.811705,0 -17.845385,6.26562 -17.845385,13.91406 0,7.65625 8.03368,13.91797 17.845385,13.91797 h 173.78592 c 9.81672,0 17.84539,-6.26172 17.84539,-13.91797 0,-7.64844 -8.02867,-13.91406 -17.84539,-13.91406 z m 0,0"
       id="path10"
       inkscape:connector-curvature="0"
       style="stroke-width:1.13233531" />
  </g>
</svg>
