<svg height="640pt" viewBox="0 -52 640 640" width="640pt" xmlns="http://www.w3.org/2000/svg"><path d="m320.964844 59.28125-61.492188-59.28125h-211.214844l7.855469 219.214844h532.734375v-159.933594zm0 0" fill="#00efd1"/><path d="m536.460938 219.214844v.550781h-432.921876v-105.332031h432.921876zm0 0" fill="#fedb41"/><path d="m640 205.980469-58.042969 329.097656h-523.222656l-58.734375-329.097656zm0 0" fill="#00acea"/><path d="m457.597656 347.710938-128.773437-109.605469c-5.105469-4.414063-12.6875-4.414063-17.925781 0l-128.769532 109.605469c-5.792968 4.964843-6.480468 13.652343-1.519531 19.441406 4.964844 5.792968 13.789063 6.480468 19.582031 1.515625l14.886719-12.6875v115.953125c0 8.40625 6.621094 14.613281 15.027344 14.613281h179.507812c8.414063 0 15.03125-6.34375 15.03125-14.613281v-115.949219l14.890625 12.683594c2.617188 2.207031 5.792969 3.308593 8.960938 3.308593 3.855468 0 7.855468-1.65625 10.476562-4.824218 5.105469-5.789063 4.414063-14.476563-1.375-19.441406zm-60.390625 111.398437h-154.414062v-126.425781l77.207031-65.902344 77.207031 65.902344zm0 0" fill="#083863"/></svg>