<svg height="640pt" viewBox="-30 0 640 640" width="640pt" xmlns="http://www.w3.org/2000/svg"><path d="m300.585938 101.449219-15.308594-101.449219h-224.601563c-33.820312 0-60.675781 27.554688-60.675781 61.371094v424.71875c0 33.816406 26.855469 60.8125 60.675781 60.8125h213.054688l153.492187-232.402344v-165.734375zm0 0" fill="#00acea"/><path d="m285.277344.140625 141.527344 148.625h-94.210938c-26.164062 0-47.316406-21.152344-47.316406-47.316406zm0 0" fill="#00efd1"/><g fill="#083863"><path d="m98.527344 346.507812h181.324218c7.652344 0 13.917969-6.257812 13.917969-13.914062 0-7.652344-6.265625-13.917969-13.917969-13.917969h-181.324218c-7.652344 0-13.917969 6.265625-13.917969 13.917969 0 7.65625 6.265625 13.914062 13.917969 13.914062zm0 0"/><path d="m98.527344 276.929688h140.96875c7.652344 0 13.917968-6.261719 13.917968-13.917969 0-7.652344-6.265624-13.914063-13.917968-13.914063h-140.96875c-7.652344 0-13.917969 6.261719-13.917969 13.914063 0 7.65625 6.265625 13.917969 13.917969 13.917969zm0 0"/><path d="m234.066406 389.648438h-135.539062c-7.652344 0-13.917969 6.265624-13.917969 13.914062 0 7.65625 6.265625 13.917969 13.917969 13.917969h135.539062c7.65625 0 13.917969-6.261719 13.917969-13.917969 0-7.648438-6.261719-13.914062-13.917969-13.914062zm0 0"/></g><path d="m426.804688 286.8125c86.28125 12.101562 152.65625 86.136719 152.65625 175.753906 0 97.96875-79.457032 177.433594-177.425782 177.433594-67.351562 0-126.078125-37.574219-156-92.960938-13.636718-25.1875-21.429687-53.992187-21.429687-84.609374 0-97.96875 79.460937-177.429688 177.429687-177.429688 8.351563.140625 16.558594.699219 24.769532 1.8125zm0 0" fill="#fedb41"/><path d="m455.886719 386.863281c-7.648438 0-13.914063 6.265625-13.914063 13.917969 0 7.65625 6.265625 13.914062 13.914063 13.914062 26.582031 0 48.292969 21.710938 48.292969 48.292969 0 12.9375-5.011719 24.769531-14.195313 33.8125-9.183594 9.191407-21.292969 13.78125-34.234375 13.78125h-35.488281l19.761719-22.824219c5.011718-5.84375 4.316406-14.472656-1.527344-19.480468-5.84375-5.011719-14.613282-4.3125-19.625 1.53125l-39.519532 46.058594s0 .144531-.136718.144531c-.144532.136719-.28125.277343-.421875.414062-.136719.140625-.277344.417969-.414063.554688-.140625.144531-.285156.28125-.285156.558593-.136719.140626-.277344.417969-.414062.554688-.140626.144531-.140626.421875-.277344.558594-.140625.140625-.140625.417968-.277344.5625-.144531.136718-.144531.414062-.28125.554687-.140625.136719-.140625.414063-.277344.695313 0 .140625-.140625.417968-.140625.554687 0 .277344-.136719.421875-.136719.699219 0 .136719-.140624.414062-.140624.554688 0 .28125-.136719.558593-.136719.835937v.558594c0 .414062-.28125.832031-.28125 1.113281l-.277344.136719c0 .417969.277344.832031.277344 1.253906 0 .136719.136719.277344.136719.554687 0 .28125.144531.558594.144531.835938 0 .136719.136719.414062.136719.558594 0 .277344.140624.414062.140624.691406 0 .140625.136719.421875.136719.5625.140625.277344.140625.414062.277344.691406.140625.144532.140625.421875.277344.558594.144531.140625.144531.417969.28125.554688.140625.144531.140625.421874.277343.558593.140626.140625.277344.417969.417969.554688.136719.144531.28125.28125.28125.558593.140625.140626.277344.417969.417969.5625.136719.136719.277344.277344.414062.414063 0 0 0 .140625.144532.140625l39.519531 45.78125c2.785156 3.203125 6.679687 4.875 10.578125 4.875 3.195312 0 6.398438-1.113281 9.042969-3.339844 5.84375-5.011718 6.398437-14.058594 1.390625-19.902344l-19.203125-22.824218h35.488281c20.316406 0 39.519531-7.652344 53.851562-21.988282 14.335938-14.328124 22.265626-33.398437 22.265626-53.714843-.136719-42.035157-34.234376-75.992188-76.261719-75.992188zm0 0" fill="#083863"/><path d="m384.5 455.886719 39.523438-46.058594s0-.140625.136718-.140625c.140625-.136719.277344-.277344.417969-.414062.136719-.144532.28125-.421876.417969-.558594.140625-.140625.277344-.277344.277344-.5625.140624-.136719.277343-.414063.417968-.554688.136719-.136718.136719-.414062.28125-.558594.140625-.136718.140625-.414062.277344-.554687.140625-.136719.140625-.414063.277344-.558594.140625-.277343.140625-.414062.277344-.691406 0-.140625.144531-.421875.144531-.558594 0-.277343.136719-.417969.136719-.695312 0-.144531.140624-.421875.140624-.558594 0-.277344.136719-.554687.136719-.835937 0-.140626 0-.277344 0-.554688 0-.421875 0-.835938 0-1.253906l-.136719-.136719c0-.421875 0-.835937 0-1.257813 0-.136718 0-.277343 0-.554687s0-.558594-.140624-.835937c0-.136719-.136719-.414063-.136719-.554688 0-.28125-.144531-.417969-.144531-.695312 0-.140626-.136719-.417969-.136719-.554688-.140625-.28125-.140625-.421875-.277344-.699219-.140625-.136719-.140625-.414062-.277344-.558593-.140625-.136719-.140625-.414063-.285156-.554688-.136719-.140625-.136719-.421875-.277344-.558594-.136719-.140625-.277343-.417968-.414062-.554687-.140625-.140625-.277344-.277344-.277344-.558594-.144531-.140625-.28125-.417969-.421875-.554687-.136719-.140626-.277344-.277344-.414062-.421876 0 0 0-.136718-.140626-.136718l-39.523437-45.785156c-5.007813-5.84375-13.773437-6.402344-19.617187-1.390626-5.847657 5.007813-6.402344 13.777344-1.394532 19.625l19.621094 22.820313h-35.484375c-20.316406 0-39.519531 7.929687-53.855469 22.265625-14.332031 14.332031-22.265625 33.535156-22.265625 53.851562 0 42.027344 34.097657 76.125 76.121094 76.125 7.652344 0 13.917969-6.265624 13.917969-13.917968 0-7.65625-6.265625-13.914063-13.917969-13.914063-26.582031 0-48.289063-21.714843-48.289063-48.292969 0-12.9375 5.007813-25.046874 14.191407-34.230468 9.1875-9.1875 21.296875-14.195313 34.234375-14.195313h35.625l-19.761719 23.101563c-5.007813 5.84375-4.308594 14.613281 1.535156 19.621094 2.640625 2.226562 5.84375 3.339843 9.042969 3.339843 3.757812.148438 7.65625-1.523437 10.4375-4.726562zm0 0" fill="#083863"/></svg>