<svg height="640pt" viewBox="0 -52 640 640" width="640pt" xmlns="http://www.w3.org/2000/svg"><path d="m320.964844 59.28125-61.492188-59.28125h-211.214844l7.855469 219.214844h532.734375v-159.933594zm0 0" fill="#00efd1"/><path d="m536.460938 219.214844v.550781h-432.921876v-105.332031h432.921876zm0 0" fill="#fedb41"/><path d="m640 205.980469-58.042969 329.097656h-523.222656l-58.734375-329.097656zm0 0" fill="#00acea"/><g fill="#083863"><path d="m373.632812 295.179688c-7.582031 0-13.789062 6.207031-13.789062 13.789062s6.207031 13.789062 13.789062 13.789062c26.332032 0 47.839844 21.507813 47.839844 47.84375 0 12.816407-4.964844 25.089844-13.925781 34.1875-9.101563 8.960938-21.09375 14.339844-33.914063 14.339844h-35.15625l19.574219-23.164062c4.964844-5.789063 4.277344-14.613282-1.511719-19.578125-5.792968-4.960938-14.480468-4.410157-19.445312 1.382812l-39.15625 45.632813s0 0-.136719.136718c-.136719.136719-.273437.277344-.414062.414063-.136719.136719-.273438.417969-.410157.554687-.140624.136719-.277343.273438-.277343.550782-.136719.136718-.277344.414062-.414063.550781-.136718.136719-.136718.414063-.273437.550781-.144531.136719-.144531.417969-.28125.554688-.136719.136718-.136719.414062-.273438.550781-.140625.273437-.140625.414063-.277343.6875 0 .136719-.136719.414063-.136719.550781 0 .28125-.136719.417969-.136719.691406 0 .140626-.140625.414063-.140625.554688 0 .273438-.136719.550781-.136719.824219v.554687c0 .414063.136719.824219.136719 1.101563l.277344.136719c0 .414062-.277344.824218-.136719 1.242187 0 .136719-.140625.277344 0 .550781v.824219c0 .140625 0 .414063.136719.550781 0 .28125.136719.417969.136719.695313 0 .136719.136718.410156.136718.550781.140625.273438.140625.410156.277344.6875.136719.136719.136719.417969.273438.554688.144531.136718.144531.414062.28125.550781.136718.136719.136718.414062.273437.550781.140625.136719.277344.414062.414063.550781.140624.136719.277343.273438.277343.554688.136719.136719.273438.414062.414063.550781.136718.136719.273437.277344.410156.414062 0 0 0 .136719.144531.136719l39.152344 45.363281c2.753906 3.167969 6.617187 4.824219 10.480469 4.824219 3.167968 0 6.335937-1.105469 8.960937-3.3125 5.789063-4.960937 6.339844-13.375 1.375-19.160156l-19.4375-22.339844h35.15625c20.132813 0 39.15625-8.132812 53.359375-22.332031 14.199219-14.199219 22.054688-33.363281 22.054688-53.492188-.136719-41.644531-33.914063-75.703124-75.550782-75.703124zm0 0"/><path d="m302.90625 363.707031 39.152344-45.640625s0-.136718.136718-.136718c.136719-.136719.273438-.273438.417969-.414063.136719-.136719.273438-.410156.410157-.554687.140624-.136719.277343-.273438.277343-.550782.136719-.136718.277344-.410156.414063-.550781.136718-.136719.136718-.410156.273437-.550781.140625-.136719.140625-.410156.277344-.554688.136719-.136718.136719-.410156.273437-.550781.144532-.273437.144532-.410156.28125-.6875 0-.136719.136719-.414063.136719-.550781 0-.273438.136719-.417969.136719-.691406 0-.136719.140625-.414063.140625-.550782 0-.277344.136719-.550781.136719-.828125 0-.136719 0-.273437 0-.554687 0-.410156-.136719-.824219-.136719-1.238282l-.277344-.136718c0-.414063.277344-.824219.136719-1.242188 0-.136718.140625-.273437 0-.414062 0-.273438 0-.550782 0-.824219 0-.136719 0-.414063-.136719-.550781 0-.28125-.136719-.417969-.136719-.691406 0-.140626-.136718-.414063-.136718-.550782-.144532-.277344-.144532-.414062-.28125-.691406-.136719-.136719-.136719-.410156-.273438-.554688-.140625-.136718-.140625-.410156-.277344-.550781-.136718-.136719-.136718-.410156-.273437-.550781-.140625-.136719-.277344-.410156-.414063-.550781-.140624-.136719-.277343-.273438-.277343-.554688-.136719-.136719-.273438-.410156-.417969-.550781-.136719-.136719-.273438-.273438-.410156-.410156 0 0 0-.140625-.140625-.140625l-39.15625-45.355469c-4.960938-5.792969-13.644531-6.34375-19.4375-1.382812-5.789063 4.964843-6.34375 13.652343-1.375 19.300781l19.4375 22.476562h-35.15625c-20.132813 0-39.15625 7.992188-53.359375 22.195313-14.199219 14.199218-22.054688 33.230468-22.054688 53.355468 0 41.636719 33.777344 75.414063 75.414063 75.414063 7.582031 0 13.789062-6.199219 13.789062-13.78125 0-7.585937-6.207031-13.789063-13.789062-13.789063-26.332031 0-47.84375-21.511718-47.84375-47.84375 0-12.820312 4.96875-24.949218 13.925781-33.914062 9.101562-8.960938 21.09375-14.0625 33.917969-14.0625h35.292969l-19.574219 23.027344c-4.96875 5.785156-4.273438 14.472656 1.515625 19.4375 2.617187 2.207031 5.789062 3.308594 8.960937 3.308594 3.859375-.128907 7.71875-1.648438 10.480469-4.816407zm0 0"/></g></svg>