<svg height="640pt" viewBox="0 -52 640 640" width="640pt" xmlns="http://www.w3.org/2000/svg"><path d="m320.964844 59.28125-61.492188-59.28125h-211.214844l7.855469 219.214844h532.734375v-159.933594zm0 0" fill="#00efd1"/><path d="m536.460938 219.214844v.550781h-432.921876v-105.332031h432.921876zm0 0" fill="#fedb41"/><path d="m640 205.980469-58.042969 329.097656h-523.222656l-58.734375-329.097656zm0 0" fill="#00acea"/><g fill="#083863"><path d="m320 271.191406c-83.550781 0-148.488281 87.691406-151.246094 91.410156-3.582031 4.824219-3.582031 11.441407 0 16.269532 2.757813 3.722656 67.695313 91.40625 151.246094 91.40625s148.484375-87.683594 151.246094-91.40625c3.582031-4.828125 3.582031-11.445313 0-16.269532-2.761719-3.863281-67.695313-91.410156-151.246094-91.410156zm0 171.375c-55.976562 0-105.195312-51.566406-122.433594-71.964844 17.238282-20.40625 66.320313-71.972656 122.433594-71.972656 55.976562 0 105.195312 51.566406 122.429688 71.972656-17.234376 20.398438-66.316407 71.964844-122.429688 71.964844zm0 0"/><path d="m320 304.558594c-36.398438 0-66.175781 29.640625-66.175781 66.179687 0 36.394531 29.636719 66.039063 66.175781 66.039063s66.175781-29.644532 66.175781-66.039063c0-36.539062-29.78125-66.179687-66.175781-66.179687zm0 104.644531c-21.230469 0-38.605469-17.234375-38.605469-38.464844 0-21.238281 17.238281-38.605469 38.605469-38.605469s38.601562 17.230469 38.601562 38.605469c0 21.367188-17.371093 38.464844-38.601562 38.464844zm0 0"/></g></svg>