<svg height="640pt" viewBox="-30 0 640 640" width="640pt" xmlns="http://www.w3.org/2000/svg"><path d="m300.585938 101.449219-15.308594-101.449219h-224.601563c-33.820312 0-60.675781 27.554688-60.675781 61.371094v424.71875c0 33.816406 26.855469 60.8125 60.675781 60.8125h213.054688l153.492187-232.402344v-165.734375zm0 0" fill="#00acea"/><path d="m285.277344.140625 141.527344 148.625h-94.210938c-26.164062 0-47.316406-21.152344-47.316406-47.316406zm0 0" fill="#00efd1"/><g fill="#083863"><path d="m98.527344 346.507812h181.324218c7.652344 0 13.917969-6.257812 13.917969-13.914062 0-7.652344-6.265625-13.917969-13.917969-13.917969h-181.324218c-7.652344 0-13.917969 6.265625-13.917969 13.917969 0 7.65625 6.265625 13.914062 13.917969 13.914062zm0 0"/><path d="m98.527344 276.929688h140.96875c7.652344 0 13.917968-6.261719 13.917968-13.917969 0-7.652344-6.265624-13.914063-13.917968-13.914063h-140.96875c-7.652344 0-13.917969 6.261719-13.917969 13.914063 0 7.65625 6.265625 13.917969 13.917969 13.917969zm0 0"/><path d="m234.066406 389.648438h-135.539062c-7.652344 0-13.917969 6.265624-13.917969 13.914062 0 7.65625 6.265625 13.917969 13.917969 13.917969h135.539062c7.65625 0 13.917969-6.261719 13.917969-13.917969 0-7.648438-6.261719-13.914062-13.917969-13.914062zm0 0"/></g><path d="m426.804688 286.8125c86.28125 12.101562 152.65625 86.136719 152.65625 175.753906 0 97.96875-79.457032 177.433594-177.425782 177.433594-67.351562 0-126.078125-37.574219-156-92.960938-13.636718-25.1875-21.429687-53.992187-21.429687-84.609374 0-97.96875 79.460937-177.429688 177.429687-177.429688 8.351563.140625 16.558594.699219 24.769532 1.8125zm0 0" fill="#fedb41"/><path d="m401.757812 362.652344c-84.332031 0-149.878906 88.503906-152.660156 92.265625-3.617187 4.867187-3.617187 11.546875 0 16.417969 2.78125 3.757812 68.328125 92.261718 152.660156 92.261718 84.332032 0 149.871094-88.503906 152.65625-92.261718 3.617188-4.871094 3.617188-11.550782 0-16.417969-2.785156-3.898438-68.324218-92.265625-152.65625-92.265625zm0 172.976562c-56.5 0-106.179687-52.046875-123.574218-72.640625 17.394531-20.597656 66.933594-72.640625 123.574218-72.640625 56.5 0 106.175782 52.042969 123.574219 72.640625-17.398437 20.59375-66.796875 72.640625-123.574219 72.640625zm0 0" fill="#083863"/><path d="m401.757812 396.328125c-36.738281 0-66.796874 29.921875-66.796874 66.796875 0 36.742188 29.917968 66.660156 66.796874 66.660156 36.875 0 66.796876-29.917968 66.796876-66.660156 0-36.875-29.921876-66.796875-66.796876-66.796875zm0 105.625c-21.429687 0-38.964843-17.398437-38.964843-38.828125 0-21.425781 17.390625-38.964844 38.964843-38.964844 21.566407 0 38.964844 17.398438 38.964844 38.964844 0 21.570312-17.535156 38.828125-38.964844 38.828125zm0 0" fill="#083863"/></svg>