<?xml version="1.0" encoding="UTF-8" standalone="no"?>
<svg
   xmlns:dc="http://purl.org/dc/elements/1.1/"
   xmlns:cc="http://creativecommons.org/ns#"
   xmlns:rdf="http://www.w3.org/1999/02/22-rdf-syntax-ns#"
   xmlns:svg="http://www.w3.org/2000/svg"
   xmlns="http://www.w3.org/2000/svg"
   xmlns:sodipodi="http://sodipodi.sourceforge.net/DTD/sodipodi-0.dtd"
   xmlns:inkscape="http://www.inkscape.org/namespaces/inkscape"
   height="546.90234pt"
   viewBox="-30 0 427.22266 546.90234"
   width="427.22266pt"
   version="1.1"
   id="svg22"
   sodipodi:docname="public_files.svg"
   inkscape:version="0.92.4 (5da689c313, 2019-01-14)">
  <metadata
     id="metadata28">
    <rdf:RDF>
      <cc:Work
         rdf:about="">
        <dc:format>image/svg+xml</dc:format>
        <dc:type
           rdf:resource="http://purl.org/dc/dcmitype/StillImage" />
        <dc:title></dc:title>
      </cc:Work>
    </rdf:RDF>
  </metadata>
  <defs
     id="defs26" />
  <sodipodi:namedview
     pagecolor="#ffffff"
     bordercolor="#666666"
     borderopacity="1"
     objecttolerance="10"
     gridtolerance="10"
     guidetolerance="10"
     inkscape:pageopacity="0"
     inkscape:pageshadow="2"
     inkscape:window-width="1920"
     inkscape:window-height="1013"
     id="namedview24"
     showgrid="false"
     inkscape:zoom="1.10625"
     inkscape:cx="425.53672"
     inkscape:cy="348.78785"
     inkscape:window-x="-9"
     inkscape:window-y="-9"
     inkscape:window-maximized="1"
     inkscape:current-layer="svg22"
     fit-margin-top="0"
     fit-margin-left="0"
     fit-margin-right="0"
     fit-margin-bottom="0" />
  <path
     d="M 270.58594,101.44922 255.27734,0 H 30.675781 C -3.1445311,0 -30,27.554688 -30,61.371094 V 486.08984 c 0,33.81641 26.8554689,60.8125 60.675781,60.8125 H 243.73047 l 152.81422,-1.89386 0.67797,-396.24286 z"
     id="path2"
     inkscape:connector-curvature="0"
     style="fill:#00acea"
     sodipodi:nodetypes="ccsssscccc" />
  <path
     d="M 255.69532,0.1406161 397.22266,148.76562 h -94.21094 c -26.16406,0 -47.3164,-21.15234 -47.3164,-47.31641 z m 0,0"
     id="path4"
     inkscape:connector-curvature="0"
     style="fill:#00efd1" />
  <path
     d="m 199.24565,160.34042 c 68.80779,9.62867 121.7407,68.53514 121.7407,139.83952 0,77.94936 -63.3656,141.17598 -141.49397,141.17598 -53.7117,0 -100.545104,-29.89613 -124.407282,-73.96486 -10.875043,-20.04057 -17.089801,-42.95917 -17.089801,-67.3199 0,-77.94935 63.368703,-141.17287 141.497083,-141.17287 6.66022,0.11189 13.20519,0.55634 19.75327,1.44213 z m 0,0"
     id="path14"
     inkscape:connector-curvature="0"
     style="fill:#fedb41;stroke-width:0.79656839" />
  <path
     d="m 229.34497,289.38171 c -3.64845,-3.44686 -9.53582,-3.44686 -13.18426,0 -3.6458,3.4444 -3.6458,9.01146 0,12.45585 l 12.4362,11.75158 c 11.96898,11.39449 11.96898,29.94558 0,41.42935 -5.79552,5.47779 -13.55961,8.48078 -21.88015,8.48078 -8.32318,0 -16.17913,-3.00299 -21.97465,-8.48078 L 172.30592,343.1801 c -3.64845,-3.44189 -9.53844,-3.44189 -13.18688,0 -3.64319,3.44689 -3.64319,9.01146 0,12.45832 l 12.53068,11.83839 c 9.44658,8.83289 21.97726,13.60396 35.1589,13.60396 13.27876,0 25.71759,-4.86032 35.1589,-13.69325 19.26326,-18.37501 19.17137,-48.23628 -0.0918,-66.43276 z m 0,0"
     id="path16"
     inkscape:connector-curvature="0"
     style="fill:#083863;stroke-width:0.65311712" />
  <path
     d="m 141.56146,239.83664 c 8.66074,0 16.83518,3.39663 22.96874,9.58456 l 12.94467,13.27828 c 3.79762,3.89548 9.92572,3.89548 13.72334,0 3.79488,-3.89269 3.79488,-10.18431 0,-14.07699 l -13.0403,-13.37636 c -9.83283,-9.98533 -22.87586,-15.37735 -36.59645,-15.37735 -13.82169,0 -26.7691,5.49011 -36.59647,15.47545 -20.050852,20.76656 -20.050852,54.51153 0,75.07911 l 12.94196,13.27828 c 1.94798,1.99818 4.38228,2.89498 6.91221,2.89498 2.52992,0 4.96149,-0.99769 6.90947,-2.89498 3.79761,-3.89548 3.79761,-10.18151 0,-14.07699 l -12.94468,-13.37916 c -12.55672,-12.77942 -12.45837,-33.84306 0,-46.82427 6.03521,-6.18793 14.11129,-9.58456 22.77751,-9.58456 z m 0,0"
     id="path18"
     inkscape:connector-curvature="0"
     style="fill:#083863;stroke-width:0.70837194" />
  <path
     d="m 194.69734,329.99238 c 2.64732,0 5.18898,-0.96659 7.22231,-2.80747 3.96955,-3.77136 3.96955,-9.8669 0,-13.63554 l -34.99773,-33.2743 c -3.96669,-3.77136 -10.37794,-3.77136 -14.34178,0 -3.96955,3.76865 -3.96955,9.86419 0,13.63826 l 34.99771,33.27158 c 1.93052,1.84088 4.57498,2.80747 7.11949,2.80747 z m 0,0"
     id="path20"
     inkscape:connector-curvature="0"
     style="fill:#083863;stroke-width:0.71285456" />
</svg>
