<svg xmlns="http://www.w3.org/2000/svg" height="512pt" version="1.1" viewBox="0 -34 512.00067 512" width="512pt">
<g id="surface1">
<path d="M 242.972656 356.59375 L 347.226562 251.988281 L 302.113281 206.871094 L 197.507812 311.125 L 176.585938 377.511719 Z M 477.078125 158.835938 C 491.21875 158.835938 502.207031 171.34375 500.21875 185.367188 L 471.585938 393.640625 C 468.546875 415.613281 449.726562 431.976562 427.640625 431.976562 L 84.957031 431.976562 C 62.75 431.976562 44.046875 415.613281 41.007812 393.640625 L 11.90625 185.367188 C 9.917969 171.34375 20.90625 158.71875 35.046875 158.71875 L 477.078125 158.71875 Z M 477.078125 158.835938 " style=" stroke:none;fill-rule:nonzero;fill:rgb(0%,67.45098%,91.764706%);fill-opacity:1;" />
<path d="M 465.742188 120.03125 L 465.742188 158.835938 L 51.0625 158.835938 L 46.503906 58.554688 C 45.335938 33.3125 65.554688 12.15625 90.914062 12.15625 L 186.636719 12.15625 C 202.183594 12.15625 216.675781 20.335938 224.738281 33.777344 L 236.894531 54.113281 C 244.960938 67.554688 259.335938 75.734375 274.996094 75.734375 L 421.210938 75.734375 C 445.753906 75.621094 465.742188 95.488281 465.742188 120.03125 Z M 465.742188 120.03125 " style=" stroke:none;fill-rule:nonzero;fill:rgb(0%,93.72549%,81.960784%);fill-opacity:1;" />
<path d="M 347.226562 251.988281 L 242.972656 356.59375 L 197.507812 311.125 L 302.113281 206.871094 Z M 347.226562 251.988281 " style=" stroke:none;fill-rule:nonzero;fill:rgb(0%,67.45098%,91.764706%);fill-opacity:1;" />
<path d="M 242.972656 356.59375 L 176.585938 377.511719 L 197.507812 311.125 Z M 242.972656 356.59375 " style=" stroke:none;fill-rule:nonzero;fill:rgb(0%,67.45098%,91.764706%);fill-opacity:1;" />
<path d="M 503.257812 159.070312 C 496.710938 151.472656 487.480469 147.148438 476.960938 147.03125 L 476.960938 119.914062 C 476.960938 88.945312 452.183594 64.164062 421.210938 64.164062 L 274.996094 64.164062 C 263.542969 64.164062 252.789062 57.855469 246.945312 48.035156 L 234.792969 27.351562 C 224.625 10.753906 206.273438 0 186.636719 0 L 90.914062 0 C 75.488281 0 60.996094 6.3125 50.359375 17.53125 C 39.722656 28.75 34.230469 43.59375 34.816406 59.023438 L 38.789062 147.265625 L 35.046875 147.265625 C 24.878906 147.265625 15.296875 151.589844 8.632812 159.1875 C 1.972656 166.898438 -1.066406 176.953125 0.335938 187.003906 L 29.320312 395.628906 C 33.179688 423.210938 57.023438 444.132812 84.835938 444.132812 L 427.519531 444.132812 C 455.453125 444.132812 479.296875 423.09375 483.15625 395.394531 L 511.671875 187.003906 C 513.074219 176.953125 509.921875 166.785156 503.257812 159.070312 Z M 58.191406 58.089844 C 57.839844 49.089844 60.996094 40.324219 67.191406 33.777344 C 73.382812 27.234375 81.800781 23.375 90.800781 23.375 L 186.523438 23.375 C 197.976562 23.375 208.730469 29.6875 214.574219 39.503906 L 226.726562 60.191406 C 236.78125 77.019531 255.246094 87.773438 274.882812 87.773438 L 421.09375 87.773438 C 439.09375 87.773438 453.46875 102.03125 453.46875 120.148438 L 453.46875 147.265625 L 62.28125 147.265625 Z M 488.648438 183.730469 L 460.015625 392.238281 C 457.792969 408.367188 443.886719 420.757812 427.640625 420.757812 L 84.957031 420.757812 C 68.710938 420.757812 54.800781 408.367188 52.582031 392.355469 L 23.476562 183.847656 C 23.011719 180.457031 23.945312 177.1875 26.28125 174.613281 C 28.503906 172.042969 31.660156 170.640625 35.046875 170.640625 L 477.078125 170.640625 C 480.464844 170.640625 483.621094 171.925781 485.84375 174.613281 C 488.179688 177.1875 489.117188 180.339844 488.648438 183.730469 Z M 488.648438 183.730469 " style=" stroke:none;fill-rule:nonzero;fill:rgb(3.137255%,21.960784%,38.823529%);fill-opacity:1;" />
<path d="M 310.410156 198.574219 C 305.851562 194.015625 298.488281 194.015625 293.929688 198.574219 L 189.328125 302.828125 C 188.039062 304.113281 186.988281 305.75 186.40625 307.621094 L 165.367188 374.007812 C 164.082031 378.214844 165.132812 382.65625 168.289062 385.8125 C 170.507812 388.03125 173.546875 389.203125 176.585938 389.203125 C 177.757812 389.203125 178.925781 388.96875 180.09375 388.617188 L 246.480469 367.695312 C 248.234375 367.109375 249.871094 366.175781 251.273438 364.773438 L 355.527344 260.167969 C 360.085938 255.609375 360.085938 248.25 355.527344 243.691406 Z M 202.882812 332.984375 L 221.117188 351.214844 L 194.46875 359.628906 Z M 242.972656 339.996094 L 214.105469 311.125 L 302.113281 223.351562 L 330.746094 251.988281 Z M 242.972656 339.996094 " style=" stroke:none;fill-rule:nonzero;fill:rgb(3.137255%,21.960784%,38.823529%);fill-opacity:1;" />
</g>
</svg>