<?xml version="1.0" encoding="UTF-8" standalone="no"?>
<!-- Generator: Adobe Illustrator 19.0.0, SVG Export Plug-In . SVG Version: 6.00 Build 0)  -->

<svg
   xmlns:dc="http://purl.org/dc/elements/1.1/"
   xmlns:cc="http://creativecommons.org/ns#"
   xmlns:rdf="http://www.w3.org/1999/02/22-rdf-syntax-ns#"
   xmlns:svg="http://www.w3.org/2000/svg"
   xmlns="http://www.w3.org/2000/svg"
   xmlns:sodipodi="http://sodipodi.sourceforge.net/DTD/sodipodi-0.dtd"
   xmlns:inkscape="http://www.inkscape.org/namespaces/inkscape"
   version="1.1"
   id="Capa_1"
   x="0px"
   y="0px"
   viewBox="0 0 502.518 502.518"
   style="enable-background:new 0 0 502.518 502.518;"
   xml:space="preserve"
   sodipodi:docname="trash.svg"
   inkscape:version="0.92.4 (5da689c313, 2019-01-14)"><metadata
   id="metadata63"><rdf:RDF><cc:Work
       rdf:about=""><dc:format>image/svg+xml</dc:format><dc:type
         rdf:resource="http://purl.org/dc/dcmitype/StillImage" /></cc:Work></rdf:RDF></metadata><defs
   id="defs61" /><sodipodi:namedview
   pagecolor="#ffffff"
   bordercolor="#666666"
   borderopacity="1"
   objecttolerance="10"
   gridtolerance="10"
   guidetolerance="10"
   inkscape:pageopacity="0"
   inkscape:pageshadow="2"
   inkscape:window-width="1920"
   inkscape:window-height="1013"
   id="namedview59"
   showgrid="false"
   inkscape:zoom="1.8785397"
   inkscape:cx="251.259"
   inkscape:cy="272.55214"
   inkscape:window-x="-9"
   inkscape:window-y="-9"
   inkscape:window-maximized="1"
   inkscape:current-layer="Capa_1" />
<path
   style="fill:#b3b3b3"
   d="M450.37,47.407c0,26.178-89.145,47.407-199.111,47.407S52.148,73.586,52.148,47.407  S141.293,0,251.259,0S450.37,21.229,450.37,47.407"
   id="path2" />
<path
   style="fill:#BDC3C7;"
   d="M99.556,464.593L52.148,47.407c0,26.178,89.145,47.407,199.111,47.407S450.37,73.586,450.37,47.407  l-47.407,417.185c0,20.945-67.916,37.926-151.704,37.926S99.556,485.537,99.556,464.593"
   id="path4" />
<g
   id="g26">
	<path
   style="fill:#95A5A5;"
   d="M82.081,72.317c-18.859-7.244-29.933-15.758-29.933-24.908l2.588,22.765L395.89,451.946   c1.877,2.095,4.475,3.167,7.073,3.167c0.379,0,0.73-0.152,1.1-0.199l2.247-19.769L82.081,72.317z"
   id="path6" />
	<path
   style="fill:#95A5A5;"
   d="M450.37,47.407c0,8.732-10.088,16.887-27.392,23.912L98.076,451.537l1.479,13.056   c0,3.129,1.688,6.154,4.551,9.064L447.611,71.68L450.37,47.407z"
   id="path8" />
	<path
   style="fill:#95A5A5;"
   d="M85.9,344.424L306.933,92.9c-8.571,0.597-17.408,1.033-26.425,1.346l-197.5,224.739L85.9,344.424z"
   id="path10" />
	<path
   style="fill:#95A5A5;"
   d="M430.491,222.348l2.674-23.552L319.936,91.855c-8.334,0.73-16.868,1.356-25.685,1.82   L430.491,222.348z"
   id="path12" />
	<path
   style="fill:#95A5A5;"
   d="M73.299,233.541L194.805,92.855c-7.993-0.569-15.777-1.242-23.315-2.029L70.389,207.903   L73.299,233.541z"
   id="path14" />
	<path
   style="fill:#95A5A5;"
   d="M187.584,92.294l230.552,238.782l2.778-24.424L215.601,94.01   C205.997,93.602,196.657,93.024,187.584,92.294"
   id="path16" />
	<path
   style="fill:#95A5A5;"
   d="M201.889,500.424l226.285-257.716l3.755-33.015L178.849,497.93   C186.159,498.917,193.906,499.732,201.889,500.424"
   id="path18" />
	<path
   style="fill:#95A5A5;"
   d="M289.68,501.243c9.387-0.616,18.394-1.441,26.984-2.475l95.137-111.919l3.793-33.394   c-0.284,0.256-0.635,0.398-0.891,0.702L289.68,501.243z"
   id="path20" />
	<path
   style="fill:#95A5A5;"
   d="M307.064,499.835c8.021-0.796,15.663-1.764,22.945-2.873L70.568,209.465l3.679,32.379   L307.064,499.835z"
   id="path22" />
	<path
   style="fill:#95A5A5;"
   d="M217.152,501.521L97.003,372.791c-2.171-2.342-5.243-3.157-8.192-2.75l2.816,24.775l97.384,104.334   C197.962,500.165,207.368,500.962,217.152,501.521"
   id="path24" />
</g>
<g
   id="g28">
</g>
<g
   id="g30">
</g>
<g
   id="g32">
</g>
<g
   id="g34">
</g>
<g
   id="g36">
</g>
<g
   id="g38">
</g>
<g
   id="g40">
</g>
<g
   id="g42">
</g>
<g
   id="g44">
</g>
<g
   id="g46">
</g>
<g
   id="g48">
</g>
<g
   id="g50">
</g>
<g
   id="g52">
</g>
<g
   id="g54">
</g>
<g
   id="g56">
</g>
<ellipse
   style="fill:#e6e6e6;fill-opacity:1;stroke-width:1.38441515"
   id="path65"
   cx="249.81665"
   cy="47.370724"
   rx="171.03204"
   ry="31.933203" /></svg>